{
.appVersion = "3338";
.formatVersion = 3;
DisplayStrings = (
"̐",
"̝"
);
customParameters = (
{
name = panose;
value = (
2,
11,
5,
2,
4,
5,
4,
2,
2,
4
);
},
{
name = unicodeRanges;
value = (
0,
6,
57
);
},
{
name = fsType;
value = (
);
},
{
disabled = 1;
name = glyphOrder;
value = (
.notdef,
.null,
CR,
"devi-sunuwar",
"tasla-sunuwar",
"eko-sunuwar",
"imar-sunuwar",
"reu-sunuwar",
"utthi-sunuwar",
"kik-sunuwar",
"ma-sunuwar",
"appho-sunuwar",
"pip-sunuwar",
"gil-sunuwar",
"hamso-sunuwar",
"carmi-sunuwar",
"nah-sunuwar",
"bur-sunuwar",
"jyah-sunuwar",
"loacha-sunuwar",
"otthi-sunuwar",
"shyele-sunuwar",
"varca-sunuwar",
"yat-sunuwar",
"ava-sunuwar",
"aal-sunuwar",
"donga-sunuwar",
"thari-sunuwar",
"phar-sunuwar",
"ngar-sunuwar",
"kha-sunuwar",
"shyer-sunuwar",
"cha-sunuwar",
"tta-sunuwar",
"ttha-sunuwar",
"kloko-sunuwar",
"pvo-sunuwar",
"zero-sunuwar",
"one-sunuwar",
"two-sunuwar",
"three-sunuwar",
"four-sunuwar",
"five-sunuwar",
"six-sunuwar",
"seven-sunuwar",
"eight-sunuwar",
"nine-sunuwar"
);
}
);
date = "2021-09-10 17:28:07 +0000";
familyName = "Noto Sans Sunuwar";
fontMaster = (
{
customParameters = (
{
name = typoAscender;
value = 1069;
},
{
name = typoDescender;
value = -293;
},
{
name = typoLineGap;
value = 0;
},
{
name = winAscent;
value = 1069;
},
{
name = winDescent;
value = 293;
},
{
name = hheaAscender;
value = 1069;
},
{
name = hheaDescender;
value = -293;
},
{
name = strikeoutPosition;
value = 322;
},
{
name = strikeoutSize;
value = 50;
},
{
name = TTFStems;
value = (
{
horizontal = 1;
name = "Stem:0";
width = 79;
},
{
horizontal = 1;
name = "Stem:1";
width = 82;
},
{
horizontal = 0;
name = "Stem:2";
width = 89;
},
{
horizontal = 0;
name = "Stem:3";
width = 95;
},
{
horizontal = 1;
name = "Stem:4";
width = 79;
},
{
horizontal = 1;
name = "Stem:5";
width = 82;
},
{
horizontal = 1;
name = "Stem:6";
width = 75;
},
{
horizontal = 1;
name = "Stem:7";
width = 64;
},
{
horizontal = 0;
name = "Stem:8";
width = 89;
},
{
horizontal = 0;
name = "Stem:9";

glyphs = (
{
category = Letter;
glyphname = "devi-sunuwar";
lastChange = "2025-02-11 20:30:56 +0000";
layers = (
{
anchors = (
{
name = bottom;
pos = (355,-50);
},
{
name = top;
pos = (355,764);
}
);
background = {
shapes = (
{
closed = 1;
nodes = (
(65,669,o),
(66,665,o),
(67,661,cs),
(71,641,o),
(120,598,o),
(163,577,cs),
(179,568,l),
(179,145,l),
(151,131,ls),
(99,106,o),
(61,78,o),
(53,58,cs),
(41,29,o),
(69,-2,o),
(97,-2,cs),
(101,-2,o),
(110,0,o),
(117,5,cs),
(123,9,o),
(132,18,o),
(135,19,c),
(170,46,o),
(209,65,o),
(252,76,cs),
(273,82,o),
(299,85,o),
(329,85,cs),
(356,85,o),
(375,83,o),
(386,80,c),
(437,69,o),
(481,50,o),
(518,21,cs),
(538,6,o),
(553,-2,o),
(563,-2,cs),
(568,-2,o),
(574,-1,o),
(581,2,c),
(581,3,o),
(582,3,o),
(583,3,c),
(590,7,o),
(595,21,o),
(596,45,cs),
(597,68,o),
(598,146,o),
(598,277,cs),
(598,284,o),
(598,295,o),
(598,312,cs),
(598,328,o),
(598,340,o),
(598,349,cs),
(598,563,o),
(597,673,o),
(594,680,cs),
(586,697,o),
(567,710,o),
(550,710,cs),
(542,710,o),
(531,704,o),
(517,691,cs),
(460,641,o),
(396,616,o),
(326,616,cs),
(257,616,o),
(199,637,o),
(151,680,cs),
(137,693,o),
(127,701,o),
(120,704,cs),
(114,708,o),
(107,710,o),
(99,710,cs),
(79,710,o),
(65,694,o),
(65,673,cs)
);
},
{
closed = 1;
nodes = (
(404,534,o),
(462,550,o),
(515,581,c),
(516,349,l),
(516,117,l),
(494,128,ls),
(465,143,o),
(433,154,o),
(396,162,cs),
(379,165,o),
(353,167,o),
(317,167,cs),
(262,167,l),
(262,539,l),
(281,536,o),
(306,534,o),
(339,534,cs)
);
}
);
};
layerId = m01;
shapes = (
{
closed = 1;
nodes = (
(62,672,l),
(80,639,o),
(130,594,o),
(181,569,c),
(181,142,l),
(130,117,o),
(68,75,o),
(50,42,c),
(107,-15,l),
(146,35,o),
(243,85,o),
(341,85,cs),
(469,85,o),
(502,51,o),
(562,9,c),
(610,35,l),
(610,677,l),
(562,703,l),
(502,661,o),
(447,620,o),
(341,620,cs),
(243,620,o),
(158,674,o),
(119,729,c)
);
},
{
closed = 1;
nodes = (
(419,538,o),
(475,558,o),
(521,582,c),
(521,129,l),
(475,153,o),
(419,167,o),
(344,167,cs),
(305,167,o),
(286,164,o),
(270,160,c),
(270,543,l),
(289,540,o),
(311,538,o),
(344,538,cs)
);
}
);
width = 722;
}
);
metricRight = "one-sunuwar";
note = sunuwar_letter_devi;
script = Sunuwar;
unicode = 72640;
},
{
category = Letter;
glyphname = "tasla-sunuwar";
lastChange = "2025-02-11 20:30:56 +0000";
layers = (
{
anchors = (
{
name = bottom;
pos = (318,-50);
},
{
name = top;
pos = (321,765);
}
);
background = {
shapes = (
{
closed = 1;
nodes = (
(534,322,o),
(524,270,o),
(503,221,cs),
(500,213,o),
(495,198,o),
(490,203,cs),
(487,205,o),
(461,236,o),
(410,296,cs),
(359,356,o),
(331,388,o),
(325,391,cs),
(319,394,o),
(312,395,o),
(305,395,cs),
(298,395,o),
(292,394,o),
(288,391,cs),
(281,386,o),
(102,189,o),
(90,173,cs),
(85,166,o),
(83,158,o),
(83,150,cs),
(83,143,o),
(85,133,o),
(88,121,cs),
(103,65,o),
(153,19,o),
(224,0,cs),
(240,-4,o),
(266,-6,o),
(302,-6,cs),
(338,-6,o),
(364,-4,o),
(380,0,cs),
(412,9,o),
(460,33,o),
(484,52,cs),
(503,67,l),
(528,36,ls),
(553,5,o),
(564,-2,o),
(583,-2,cs),
(600,-2,o),
(616,14,o),
(616,34,cs),
(616,46,o),
(605,66,o),
(583,93,cs),
(564,116,o),
(554,127,o),
(554,128,cs),
(554,129,o),
(558,137,o),
(567,154,cs),
(586,191,o),
(600,234,o),
(609,282,cs),
(614,303,o),
(616,330,o),
(616,365,cs),
(616,400,o),
(614,427,o),
(611,446,cs),
(588,558,o),
(532,641,o),
(453,684,cs),
(415,705,o),
(369,715,o),
(316,715,cs),
(294,715,o),
(277,714,o),
(266,711,cs),
(190,698,o),
(99,647,o),
(88,614,c),
(85,609,o),
(83,604,o),
(83,599,cs),
(83,574,o),
(104,553,o),
(129,553,cs),
(135,553,o),
(140,554,o),
(144,557,cs),
(147,559,o),
(154,564,o),
(165,572,cs),
(216,613,o),
(272,633,o),
(332,633,cs),
(464,633,o),
(534,523,o),
(534,375,cs)
);
},
{
closed = 1;
nodes = (
(442,130,o),
(410,107,o),
(387,96,cs),
(358,82,o),
(325,75,o),
(290,75,cs),
(259,75,o),
(232,80,o),
(209,91,cs),
(188,100,o),
(166,120,o),
(169,128,c),
(169,131,o),
(193,158,o),
(242,211,cs),
(271,244,o),
(290,265,o),
(299,274,cs),
(308,283,o),
(313,287,o),
(316,287,cs),
(320,287,o),
(442,141,o),
(442,137,cs)
);
}
);
};
guides = (
{
angle = 42.2208;
pos = (135,565);
},
{
angle = 150.2551;
pos = (323,396);
},
{
angle = 123.5549;
pos = (638,37);
}
);
layerId = m01;
shapes = (
{
closed = 1;
nodes = (
(332,299,o),
(504,83,o),
(569,-15,c),
(638,37,l),
(594,103,o),
(390,397,o),
(312,397,cs),
(255,397,o),
(78,199,o),
(78,141,cs),
(78,62,o),
(169,-15,o),
(301,-15,cs),
(491,-15,o),
(634,151,o),
(634,385,cs),
(634,617,o),
(498,729,o),
(323,729,cs),
(202,729,o),
(125,675,o),
(71,621,c),
(127,557,l),
(167,598,o),
(230,647,o),
(323,647,cs),
(437,647,o),
(539,552,o),
(539,385,cs),
(539,208,o),
(442,67,o),
(301,67,cs),
(217,67,o),
(170,110,o),
(170,135,cs),
(170,163,o),
(290,299,o),
(311,299,cs)
);
}
);
width = 723;
}
);
note = sunuwar_letter_tasla;
script = Sunuwar;
unicode = 72641;
},
{
category = Letter;
glyphname = "eko-sunuwar";
lastChange = "2025-02-11 20:30:56 +0000";
layers = (
{
anchors = (
{
name = bottom;
pos = (306,-50);
},
{
name = top;
pos = (306,764);
}
);
background = {
shapes = (
{
closed = 1;
nodes = (
(539,45,o),
(535,54,o),
(528,62,cs),
(519,71,o),
(510,76,o),
(501,78,cs),
(491,79,o),
(463,80,o),
(418,80,cs),
(334,80,l),
(334,347,l),
(517,347,l),
(526,355,ls),
(535,362,o),
(539,372,o),
(539,383,cs),
(539,392,o),
(535,401,o),
(528,410,cs),
(519,419,o),
(510,425,o),
(501,427,cs),
(491,428,o),
(463,429,o),
(418,429,cs),
(334,429,l),
(332,553,ls),
(332,614,o),
(332,651,o),
(331,663,cs),
(330,675,o),
(328,683,o),
(325,688,cs),
(315,703,o),
(302,710,o),
(286,710,cs),
(270,710,o),
(260,703,o),
(255,689,cs),
(252,682,o),
(251,637,o),
(251,553,cs),
(251,429,l),
(163,429,ls),
(113,429,o),
(83,428,o),
(73,427,cs),
(62,425,o),
(55,419,o),
(50,408,cs),
(49,403,o),
(48,398,o),
(48,393,cs),
(48,384,o),
(51,374,o),
(57,365,cs),
(64,356,o),
(73,350,o),
(83,349,cs),
(92,348,o),
(120,347,o),
(167,347,cs),
(251,347,l),
(251,80,l),
(163,80,ls),
(113,80,o),
(83,79,o),
(73,78,cs),
(62,76,o),
(55,70,o),
(50,61,c),
(49,55,o),
(48,49,o),
(48,44,cs),
(48,33,o),
(52,23,o),
(61,12,cs),
(72,1,l),
(519,1,l),
(532,13,o),
(539,24,o),
(539,34,cs)
);
}
);
};
layerId = m01;
shapes = (
{
pos = (149,0);
ref = "one-sunuwar";
},
{
closed = 1;
nodes = (
(516,348,l),
(516,427,l),
(75,427,l),
(75,348,l)
);
},
{
closed = 1;
nodes = (
(536,0,l),
(536,79,l),
(55,79,l),
(55,0,l)
);
}
);
width = 591;
}
);
note = sunuwar_letter_eko;
script = Sunuwar;
unicode = 72642;
},
{
category = Letter;
glyphname = "imar-sunuwar";
lastChange = "2025-02-11 20:31:19 +0000";
layers = (
{
anchors = (
{
name = bottom;
pos = (265,-50);
},
{
name = top;
pos = (265,764);
}
);
background = {
shapes = (
{
closed = 1;
nodes = (
(232.667,691,o),
(228.167,683,o),
(226.5,671,cs),
(224.833,659,o),
(223.667,621,o),
(223,557,cs),
(221,437,l),
(155,409,ls),
(111,391.667,o),
(87.333,382,o),
(84,380,cs),
(76,374.667,o),
(68,362.333,o),
(68,349,cs),
(68,325,o),
(90.333,303,o),
(113,303,cs),
(131.951,303,o),
(171.023,341,o),
(219,341,cs),
(227.974,341,o),
(215.07,30.481,o),
(231,10,cs),
(242.333,-4.667,o),
(256,-12,o),
(272,-12,cs),
(285.333,-12,o),
(294.667,-6.667,o),
(300,4,cs),
(302.667,8.667,o),
(304.667,72,o),
(306,194,cs),
(307,376,l),
(389,409,ls),
(444.333,431,o),
(474.667,444.667,o),
(480,450,cs),
(488,456.667,o),
(492,464.667,o),
(492,474,cs),
(492,499.333,o),
(468.667,523,o),
(446,523,cs),
(440,523,o),
(416.333,514.333,o),
(375,497,c),
(345.17,487.822,o),
(313.079,472,o),
(309,472,cs),
(301.468,472,o),
(312.272,658.365,o),
(297,678,cs),
(286.333,692.667,o),
(273,700,o),
(257,700,cs),
(251,700,o),
(245.333,698.333,o),
(240,695,cs)
);
},
{
closed = 1;
nodes = (
(490,452,l),
(462,525,l),
(30,363,l),
(59,289,l)
);
},
{
closed = 1;
nodes = (
(484,452,l),
(469,530,l),
(36,368,l),
(52,289,l)
);
}
);
};
layerId = m01;
shapes = (
{
closed = 1;
nodes = (
(221,0,l),
(310,0,l),
(310,714,l),
(221,714,l)
);
},
{
closed = 1;
nodes = (
(50,286,l),
(489,452,l),
(491,527,l),
(482,533,l),
(41,368,l),
(41,293,l)
);
}
);
width = 532;
}
);
note = sunuwar_letter_imar;
script = Sunuwar;
unicode = 72643;
},
{
category = Letter;
glyphname = "reu-sunuwar";
lastChange = "2025-02-11 20:30:56 +0000";
layers = (
{
anchors = (
{
name = bottom;
pos = (393,-50);
},
{
name = top;
pos = (393,764);
}
);
background = {
shapes = (
{
closed = 1;
nodes = (
(625,173,o),
(393,511,o),
(172,729,c),
(112,706,l),
(112,0,l),
(201,0,l),
(201,568,l),
(314,453,o),
(546,133,o),
(629,0,c),
(721,0,l),
(727,10,l)
);
},
{
closed = 1;
nodes = (
(345,0,l),
(434,0,l),
(434,714,l),
(345,714,l)
);
}
);
};
guides = (
{
angle = -44.6049;
pos = (296,607);
},
{
angle = 122.0888;
pos = (575,83);
}
);
layerId = m01;
shapes = (
{
closed = 1;
nodes = (
(625,173,o),
(393,511,o),
(172,729,c),
(112,706,l),
(112,0,l),
(201,0,l),
(201,573,l),
(314,458,o),
(551,133,o),
(634,0,c),
(721,0,l),
(727,10,l)
);
},
{
closed = 1;
nodes = (
(345,0,l),
(434,0,l),
(434,714,l),
(345,714,l)
);
}
);
width = 727;
}
);
metricLeft = "one-sunuwar";
note = sunuwar_letter_reu;
script = Sunuwar;
unicode = 72644;
},
{
category = Letter;
glyphname = "utthi-sunuwar";
lastChange = "2025-02-11 20:30:56 +0000";
layers = (
{
anchors = (
{
name = bottom;
pos = (363,-50);
},
{
name = top;
pos = (363,764);
}
);
background = {
shapes = (
{
closed = 1;
nodes = (
(35,544,o),
(40,521,o),
(46,506,c),
(130,526,l),
(128,531,o),
(124,545,o),
(124,561,cs),
(124,611,o),
(155,641,o),
(202,641,cs),
(229,641,o),
(250,629,o),
(269,609,cs),
(320,554,o),
(349,388,o),
(352,179,cs),
(353,119,o),
(350,55,o),
(346,-5,c),
(403,-15,l),
(409,8,o),
(421,43,o),
(438,79,cs),
(488,185,o),
(590,283,o),
(681,297,c),
(656,378,l),
(575,366,o),
(488,300,o),
(440,221,c),
(441,377,o),
(409,591,o),
(341,665,cs),
(305,704,o),
(264,729,o),
(202,729,cs),
(100,729,o),
(35,656,o),
(35,572,cs)
);
}
);
};
guides = (
{
angle = 197.5799;
pos = (625,368);
},
{
angle = 8.427;
pos = (628,289);
},
{
angle = -48.5035;
pos = (359,655);
},
{
angle = 132.625;
pos = (277,599);
}
);
layerId = m01;
shapes = (
{
closed = 1;
nodes = (
(35,544,o),
(40,521,o),
(46,506,c),
(130,526,l),
(128,531,o),
(124,545,o),
(124,561,cs),
(124,611,o),
(155,641,o),
(202,641,cs),
(229,641,o),
(250,629,o),
(269,609,cs),
(320,554,o),
(349,388,o),
(352,179,cs),
(353,119,o),
(350,55,o),
(346,-5,c),
(403,-15,l),
(409,8,o),
(421,43,o),
(438,79,cs),
(488,185,o),
(590,283,o),
(681,297,c),
(656,378,l),
(575,366,o),
(487,300,o),
(439,221,c),
(440,377,o),
(408,591,o),
(340,665,cs),
(304,704,o),
(261,729,o),
(202,729,cs),
(100,729,o),
(35,656,o),
(35,572,cs)
);
}
);
width = 701;
}
);
note = sunuwar_letter_utthi;
script = Sunuwar;
unicode = 72645;
},
{
category = Letter;
glyphname = "kik-sunuwar";
lastChange = "2025-02-11 20:30:56 +0000";
layers = (
{
anchors = (
{
name = bottom;
pos = (365,-50);
},
{
name = top;
pos = (365,764);
}
);
background = {
shapes = (
{
closed = 1;
nodes = (
(608,86,o),
(585,109,o),
(561,109,cs),
(554,109,o),
(544,104,o),
(533,95,cs),
(520,82,o),
(506,76,o),
(493,76,cs),
(480,76,o),
(466,83,o),
(451,96,cs),
(428,116,o),
(416,145,o),
(416,183,cs),
(416,194,o),
(418,206,o),
(421,217,c),
(432,272,o),
(491,363,o),
(550,412,c),
(564,426,o),
(577,434,o),
(577,453,cs),
(577,472,o),
(569,486,o),
(553,495,cs),
(548,498,o),
(538,499,o),
(523,500,cs),
(508,500,o),
(465,500,o),
(394,500,cs),
(249,500,l),
(247,591,ls),
(247,633,o),
(247,659,o),
(246,669,cs),
(245,678,o),
(243,685,o),
(240,690,cs),
(229,705,o),
(216,712,o),
(201,712,cs),
(184,712,o),
(173,705,o),
(168,691,cs),
(166,684,o),
(165,651,o),
(165,591,cs),
(165,500,l),
(77,500,ls),
(29,500,o),
(0,499,o),
(-9,498,cs),
(-19,496,o),
(-27,490,o),
(-33,481,c),
(-34,476,o),
(-35,470,o),
(-35,465,cs),
(-35,456,o),
(-32,447,o),
(-26,438,cs),
(-19,428,o),
(-10,422,o),
(0,421,cs),
(9,419,o),
(37,418,o),
(82,418,cs),
(165,418,l),
(165,224,ls),
(165,129,o),
(166,72,o),
(167,55,cs),
(168,38,o),
(169,27,o),
(172,22,c),
(184,7,o),
(197,0,o),
(212,0,cs),
(217,0,o),
(223,1,o),
(229,4,c),
(229,4,o),
(229,4,o),
(229,4,c),
(238,9,o),
(243,20,o),
(245,37,cs),
(246,54,o),
(247,111,o),
(247,207,cs),
(247,209,o),
(247,212,o),
(247,216,cs),
(247,219,o),
(247,222,o),
(247,224,cs),
(247,418,l),
(434,418,l),
(418,396,ls),
(363,321,o),
(335,252,o),
(335,190,cs),
(335,94,o),
(397,14,o),
(473,-3,cs),
(482,-6,o),
(491,-7,o),
(500,-7,cs),
(552,-7,o),
(608,27,o),
(608,63,cs)
);
}
);
};
layerId = m01;
shapes = (
{
closed = 1;
nodes = (
(576,118,l),
(564,104,o),
(543,75,o),
(510,75,cs),
(474,75,o),
(435,103,o),
(435,164,cs),
(435,246,o),
(502,365,o),
(599,442,c),
(578,500,l),
(35,500,l),
(35,421,l),
(464,421,l),
(466,416,l),
(399,348,o),
(346,255,o),
(346,164,cs),
(346,53,o),
(415,-7,o),
(510,-7,cs),
(576,-7,o),
(613,29,o),
(637,62,c)
);
},
{
pos = (64,0);
ref = "one-sunuwar";
}
);
width = 672;
}
);
note = sunuwar_letter_kik;
script = Sunuwar;
unicode = 72646;
},
{
category = Letter;
glyphname = "ma-sunuwar";
lastChange = "2025-02-11 20:30:56 +0000";
layers = (
{
anchors = (
{
name = bottom;
pos = (399,-50);
},
{
name = top;
pos = (399,764);
}
);
background = {
shapes = (
{
closed = 1;
nodes = (
(121,1,o),
(133,12,o),
(150,43,cs),
(178,92,o),
(197,146,o),
(207,207,cs),
(210,223,o),
(211,257,o),
(211,310,cs),
(211,413,o),
(198,565,o),
(189,630,c),
(350,630,l),
(350,331,ls),
(351,183,o),
(352,96,o),
(353,70,cs),
(354,43,o),
(356,28,o),
(359,23,cs),
(369,8,o),
(382,1,o),
(398,1,cs),
(404,1,o),
(409,2,o),
(414,5,c),
(414,5,o),
(415,5,o),
(416,6,cs),
(425,10,o),
(430,23,o),
(432,46,cs),
(433,68,o),
(434,140,o),
(434,262,cs),
(434,269,o),
(434,280,o),
(434,295,cs),
(434,310,o),
(434,322,o),
(434,331,cs),
(434,630,l),
(588,630,l),
(588,624,ls),
(588,619,o),
(586,602,o),
(583,572,cs),
(572,489,o),
(566,410,o),
(566,334,cs),
(566,245,o),
(570,210,o),
(585,163,cs),
(606,98,o),
(659,16,o),
(684,5,cs),
(690,2,o),
(697,1,o),
(704,1,cs),
(721,1,o),
(737,16,o),
(737,37,cs),
(737,49,o),
(732,61,o),
(722,72,cs),
(695,105,o),
(667,161,o),
(658,197,cs),
(651,228,o),
(647,268,o),
(647,317,cs),
(647,388,o),
(654,479,o),
(669,592,cs),
(675,632,o),
(678,658,o),
(678,671,cs),
(678,686,o),
(671,698,o),
(656,707,cs),
(650,710,o),
(635,712,o),
(611,713,cs),
(586,713,o),
(511,713,o),
(385,713,cs),
(123,713,l),
(115,704,ls),
(108,697,o),
(104,690,o),
(104,683,cs),
(104,670,o),
(106,645,o),
(110,608,cs),
(123,490,o),
(130,395,o),
(130,322,cs),
(130,265,o),
(126,221,o),
(119,190,cs),
(109,155,o),
(94,120,o),
(75,85,cs),
(65,67,o),
(60,54,o),
(60,47,cs),
(60,22,o),
(79,1,o),
(106,1,cs)
);
}
);
};
layerId = m01;
shapes = (
{
closed = 1;
nodes = (
(122,-15,l),
(174,48,o),
(212,150,o),
(212,316,cs),
(212,449,o),
(201,589,o),
(194,635,c),
(355,635,l),
(355,0,l),
(444,0,l),
(444,635,l),
(601,635,l),
(594,573,o),
(577,438,o),
(577,326,cs),
(577,130,o),
(628,12,o),
(690,-15,c),
(757,44,l),
(691,104,o),
(666,199,o),
(666,326,cs),
(666,436,o),
(684,571,o),
(697,661,c),
(671,714,l),
(134,714,l),
(96,674,l),
(106,601,o),
(123,447,o),
(123,316,cs),
(123,202,o),
(95,98,o),
(45,27,c)
);
}
);
width = 802;
}
);
note = sunuwar_letter_ma;
script = Sunuwar;
unicode = 72647;
},
{
category = Letter;
glyphname = "appho-sunuwar";
lastChange = "2025-02-11 20:30:56 +0000";
layers = (
{
anchors = (
{
name = bottom;
pos = (236,-50);
},
{
name = top;
pos = (236,764);
}
);
background = {
shapes = (
{
closed = 1;
nodes = (
(282,349,o),
(271,363,o),
(249,374,cs),
(229,383,o),
(192,413,o),
(172,434,cs),
(159,449,o),
(158,451,o),
(159,462,cs),
(164,494,o),
(222,549,o),
(307,598,cs),
(340,618,l),
(342,552,ls),
(343,527,o),
(344,499,o),
(344,466,cs),
(344,430,o),
(344,406,o),
(344,393,cs),
(344,368,o),
(341,297,o),
(337,272,cs),
(329,222,o),
(317,178,o),
(284,148,cs),
(247,111,o),
(186,91,o),
(81,83,cs),
(53,81,o),
(37,79,o),
(33,77,cs),
(23,70,o),
(18,60,o),
(18,46,cs),
(18,21,o),
(37,-1,o),
(66,-1,cs),
(71,-1,o),
(84,0,o),
(103,1,cs),
(180,6,o),
(240,20,o),
(285,42,cs),
(358,78,o),
(396,130,o),
(413,227,cs),
(422,275,o),
(426,340,o),
(426,421,cs),
(426,440,o),
(426,461,o),
(426,482,cs),
(424,573,o),
(422,632,o),
(421,657,cs),
(419,682,o),
(416,698,o),
(413,703,cs),
(402,717,o),
(388,724,o),
(373,724,cs),
(366,724,o),
(351,719,o),
(328,708,cs),
(255,675,o),
(168,617,o),
(131,576,cs),
(94,537,o),
(76,501,o),
(76,467,cs),
(76,451,o),
(80,436,o),
(87,421,cs),
(104,386,o),
(169,328,o),
(214,303,c),
(253,285,o),
(282,298,o),
(282,330,cs)
);
},
{
closed = 1;
nodes = (
(223,382,o),
(159,428,o),
(159,463,cs),
(159,502,o),
(244,573,o),
(340,625,c),
(342,558,o),
(344,459,o),
(344,392,cs),
(344,325,o),
(343,199,o),
(285,146,cs),
(248,109,o),
(186,83,o),
(81,79,cs),
(53,78,o),
(36,79,o),
(30,79,c),
(30,0,l),
(47,0,o),
(84,0,o),
(103,1,cs),
(180,4,o),
(241,22,o),
(286,44,cs),
(431,115,o),
(433,285,o),
(433,392,cs),
(433,461,o),
(432,664,o),
(429,701,c),
(382,729,l),
(345,729,o),
(76,589,o),
(76,467,cs),
(76,380,o),
(176,314,o),
(242,281,c),
(282,347,l)
);
}
);
};
guides = (
{
angle = 149.3227;
pos = (228,382);
}
);
layerId = m01;
shapes = (
{
closed = 1;
nodes = (
(228,382,o),
(164,424,o),
(164,463,cs),
(164,506,o),
(249,573,o),
(345,625,c),
(347,558,o),
(349,459,o),
(349,392,cs),
(349,135,o),
(288,79,o),
(35,79,c),
(35,0,l),
(335,0,o),
(438,86,o),
(438,392,cs),
(438,461,o),
(437,664,o),
(434,701,c),
(387,729,l),
(350,729,o),
(69,589,o),
(69,467,cs),
(69,375,o),
(169,319,o),
(245,274,c),
(287,347,l)
);
}
);
width = 523;
}
);
note = sunuwar_letter_appho;
script = Sunuwar;
unicode = 72648;
},
{
category = Letter;
glyphname = "pip-sunuwar";
lastChange = "2025-02-11 20:30:56 +0000";
layers = (
{
anchors = (
{
name = bottom;
pos = (367,-50);
},
{
name = top;
pos = (367,764);
}
);
background = {
shapes = (
{
closed = 1;
nodes = (
(55,52,o),
(60,40,o),
(70,31,cs),
(83,18,o),
(111,6,o),
(154,-5,cs),
(168,-9,o),
(190,-11,o),
(221,-11,cs),
(252,-11,o),
(274,-9,o),
(288,-5,cs),
(337,8,o),
(371,31,o),
(392,65,cs),
(401,80,o),
(406,96,o),
(408,113,cs),
(409,130,o),
(410,170,o),
(410,233,cs),
(410,350,l),
(425,354,ls),
(541,385,o),
(615,471,o),
(615,583,cs),
(615,627,o),
(603,697,o),
(594,708,cs),
(585,721,o),
(573,728,o),
(558,728,cs),
(538,728,o),
(521,716,o),
(521,695,cs),
(521,691,o),
(523,681,o),
(526,664,cs),
(529,642,o),
(531,619,o),
(531,595,cs),
(531,570,o),
(529,552,o),
(524,539,cs),
(507,496,o),
(469,463,o),
(410,440,c),
(410,503,ls),
(410,598,o),
(401,636,o),
(362,684,cs),
(337,715,o),
(302,730,o),
(257,730,cs),
(245,730,o),
(233,728,o),
(221,725,cs),
(133,702,o),
(54,608,o),
(54,517,cs),
(54,449,o),
(100,390,o),
(175,359,cs),
(206,346,o),
(243,339,o),
(285,337,cs),
(328,336,l),
(327,123,l),
(319,113,ls),
(299,86,o),
(263,72,o),
(211,72,cs),
(181,72,o),
(151,78,o),
(121,91,cs),
(106,97,o),
(95,100,o),
(87,100,cs),
(70,100,o),
(55,82,o),
(55,65,cs)
);
},
{
closed = 1;
nodes = (
(135,521,o),
(140,536,o),
(149,553,cs),
(174,606,o),
(231,647,o),
(272,647,cs),
(297,647,o),
(314,630,o),
(323,595,cs),
(326,582,o),
(328,550,o),
(328,499,cs),
(328,422,l),
(310,420,ls),
(303,419,o),
(296,419,o),
(289,419,cs),
(214,419,o),
(135,451,o),
(135,507,cs)
);
}
);
};
guides = (
{
angle = -28.3008;
pos = (70,15);
}
);
layerId = m01;
shapes = (
{
closed = 1;
nodes = (
(502,337,o),
(615,434,o),
(615,589,cs),
(615,646,o),
(607,684,o),
(598,714,c),
(513,697,l),
(519,671,o),
(526,640,o),
(526,589,cs),
(526,481,o),
(466,419,o),
(294,419,cs),
(219,419,o),
(140,451,o),
(140,507,cs),
(140,576,o),
(220,648,o),
(277,648,cs),
(319,648,o),
(330,613,o),
(330,551,cs),
(330,233,ls),
(330,112,o),
(309,67,o),
(216,67,cs),
(160,67,o),
(100,96,o),
(82,106,c),
(48,27,l),
(71,14,o),
(137,-15,o),
(216,-15,cs),
(367,-15,o),
(419,46,o),
(419,213,cs),
(419,586,ls),
(419,684,o),
(376,730,o),
(289,730,cs),
(167,730,o),
(45,607,o),
(45,507,cs),
(45,402,o),
(162,337,o),
(290,337,cs)
);
}
);
width = 660;
}
);
note = sunuwar_letter_pip;
script = Sunuwar;
unicode = 72649;
},
{
category = Letter;
glyphname = "gil-sunuwar";
lastChange = "2025-02-11 20:30:56 +0000";
layers = (
{
anchors = (
{
name = bottom;
pos = (291,-50);
},
{
name = top;
pos = (291,764);
}
);
background = {
shapes = (
{
closed = 1;
nodes = (
(58,817,o),
(60,786,o),
(65,760,cs),
(76,691,o),
(136,632,o),
(216,609,cs),
(230,606,o),
(250,604,o),
(275,604,cs),
(331,604,o),
(377,617,o),
(414,642,cs),
(420,647,o),
(424,649,o),
(425,649,cs),
(426,649,o),
(427,633,o),
(427,600,cs),
(427,589,o),
(427,578,o),
(427,565,cs),
(426,526,o),
(425,502,o),
(424,492,cs),
(423,482,o),
(422,473,o),
(419,465,cs),
(396,410,o),
(339,372,o),
(278,372,cs),
(223,372,o),
(168,402,o),
(141,447,cs),
(128,471,o),
(117,477,o),
(97,477,cs),
(76,477,o),
(61,462,o),
(61,445,cs),
(61,438,o),
(64,429,o),
(69,418,cs),
(96,366,o),
(150,322,o),
(205,302,cs),
(233,293,o),
(261,288,o),
(288,288,cs),
(351,288,o),
(404,310,o),
(446,354,cs),
(471,378,o),
(488,406,o),
(499,439,cs),
(508,464,l),
(508,716,ls),
(508,841,o),
(508,915,o),
(507,938,cs),
(506,960,o),
(504,973,o),
(501,978,cs),
(490,993,o),
(477,1000,o),
(462,1000,cs),
(455,1000,o),
(449,998,o),
(443,994,cs),
(436,990,o),
(431,982,o),
(430,971,cs),
(428,959,o),
(427,931,o),
(427,886,cs),
(427,841,o),
(426,812,o),
(424,798,cs),
(422,784,o),
(417,771,o),
(408,758,cs),
(381,717,o),
(321,685,o),
(266,685,cs),
(221,685,o),
(172,709,o),
(153,742,cs),
(148,751,o),
(144,772,o),
(142,806,cs),
(141,823,o),
(141,836,o),
(141,845,cs),
(141,864,o),
(146,880,o),
(155,891,cs),
(170,907,o),
(182,913,o),
(213,913,cs),
(231,913,o),
(242,915,o),
(247,920,cs),
(256,929,o),
(260,938,o),
(260,948,cs),
(260,961,o),
(255,972,o),
(245,981,cs),
(235,991,o),
(217,996,o),
(191,996,cs),
(115,996,o),
(58,939,o),
(58,854,cs)
);
},
{
closed = 1;
nodes = (
(596,337,o),
(715,434,o),
(715,589,cs),
(715,646,o),
(707,684,o),
(698,714,c),
(607,697,l),
(613,671,o),
(620,640,o),
(620,589,cs),
(620,481,o),
(560,419,o),
(388,419,cs),
(313,419,o),
(234,451,o),
(234,507,cs),
(234,566,o),
(314,648,o),
(371,648,cs),
(413,648,o),
(424,613,o),
(424,551,cs),
(424,233,ls),
(424,112,o),
(380,67,o),
(265,67,cs),
(204,67,o),
(143,92,o),
(111,106,c),
(80,27,l),
(108,14,o),
(173,-15,o),
(265,-15,cs),
(451,-15,o),
(513,46,o),
(513,213,cs),
(513,586,ls),
(513,684,o),
(470,730,o),
(383,730,cs),
(261,730,o),
(139,607,o),
(139,507,cs),
(139,402,o),
(256,337,o),
(384,337,cs)
);
}
);
};
layerId = m01;
shapes = (
{
closed = 1;
nodes = (
(55,529,cs),
(55,370,o),
(131,304,o),
(266,304,cs),
(350,304,o),
(407,339,o),
(426,362,c),
(429,361,l),
(429,233,ls),
(429,112,o),
(385,67,o),
(270,67,cs),
(209,67,o),
(148,92,o),
(116,106,c),
(85,27,l),
(113,14,o),
(178,-15,o),
(270,-15,cs),
(456,-15,o),
(518,46,o),
(518,213,cs),
(518,714,l),
(429,714,l),
(429,586,ls),
(429,519,o),
(429,470,o),
(409,441,cs),
(391,415,o),
(345,386,o),
(276,386,cs),
(195,386,o),
(150,425,o),
(150,529,cs),
(150,618,o),
(167,646,o),
(226,646,cs),
(241,646,o),
(251,643,o),
(257,641,c),
(265,723,l),
(256,726,o),
(237,729,o),
(214,729,cs),
(117,729,o),
(55,679,o)
);
}
);
width = 613;
}
);
note = sunuwar_letter_gil;
script = Sunuwar;
unicode = 72650;
},
{
category = Letter;
glyphname = "hamso-sunuwar";
lastChange = "2025-02-11 20:30:56 +0000";
layers = (
{
anchors = (
{
name = bottom;
pos = (305,-50);
},
{
name = top;
pos = (305,764);
}
);
background = {
shapes = (
{
closed = 1;
nodes = (
(551,58,o),
(456,466,o),
(449,477,cs),
(445,483,o),
(440,488,o),
(434,493,cs),
(428,496,o),
(421,498,o),
(412,499,cs),
(403,499,o),
(377,499,o),
(333,499,cs),
(240,499,l),
(240,590,ls),
(240,632,o),
(240,658,o),
(239,668,cs),
(238,677,o),
(237,684,o),
(234,689,c),
(222,704,o),
(208,711,o),
(192,711,cs),
(177,711,o),
(167,704,o),
(161,690,c),
(160,683,o),
(159,650,o),
(159,590,cs),
(159,499,l),
(102,499,ls),
(69,499,o),
(49,498,o),
(41,497,cs),
(33,495,o),
(27,489,o),
(23,480,cs),
(20,475,o),
(18,469,o),
(18,464,cs),
(18,455,o),
(22,446,o),
(29,437,cs),
(35,428,o),
(42,423,o),
(50,421,cs),
(58,418,o),
(77,417,o),
(106,417,cs),
(159,417,l),
(159,223,ls),
(159,128,o),
(159,71,o),
(160,54,cs),
(161,37,o),
(163,26,o),
(166,21,cs),
(177,6,o),
(190,-1,o),
(205,-1,cs),
(211,-1,o),
(217,0,o),
(223,3,cs),
(232,8,o),
(237,19,o),
(238,36,cs),
(239,53,o),
(240,110,o),
(240,206,cs),
(240,208,o),
(240,211,o),
(240,215,cs),
(240,218,o),
(240,221,o),
(240,223,cs),
(240,417,l),
(313,417,ls),
(360,417,o),
(383,417,o),
(383,416,cs),
(383,414,o),
(472,31,o),
(480,18,c),
(491,5,o),
(503,-1,o),
(518,-1,cs),
(533,-1,o),
(551,12,o),
(551,31,cs)
);
}
);
};
layerId = m01;
shapes = (
{
closed = 1;
nodes = (
(448,500,l),
(35,500,l),
(35,421,l),
(390,421,l)
);
},
{
pos = (64,0);
ref = "one-sunuwar";
},
{
closed = 1;
nodes = (
(473,0,l),
(558,0,l),
(562,10,l),
(448,500,l),
(366,500,l),
(360,490,l)
);
}
);
width = 607;
}
);
note = sunuwar_letter_hamso;
script = Sunuwar;
unicode = 72651;
},
{
category = Letter;
glyphname = "carmi-sunuwar";
lastChange = "2025-02-11 20:30:56 +0000";
layers = (
{
anchors = (
{
name = bottom;
pos = (251,-50);
},
{
name = top;
pos = (251,764);
}
);
background = {
shapes = (
{
closed = 1;
nodes = (
(294,607,o),
(151,485,o),
(35,386,c),
(35,336,l),
(154,233,o),
(289,104,o),
(404,-15,c),
(471,51,l),
(371,154,o),
(249,271,o),
(142,362,c),
(251,454,o),
(368,568,o),
(461,667,c),
(400,727,l)
);
}
);
};
layerId = m01;
shapes = (
{
closed = 1;
nodes = (
(294,607,o),
(151,485,o),
(35,386,c),
(35,336,l),
(154,233,o),
(289,104,o),
(404,-15,c),
(469,49,l),
(369,152,o),
(247,272,o),
(140,360,c),
(140,364,l),
(251,451,o),
(369,569,o),
(461,667,c),
(400,727,l)
);
}
);
width = 538;
}
);
note = sunuwar_letter_carmi;
script = Sunuwar;
unicode = 72652;
},
{
category = Letter;
glyphname = "nah-sunuwar";
lastChange = "2025-02-11 20:30:56 +0000";
layers = (
{
anchors = (
{
name = bottom;
pos = (298,-50);
},
{
name = top;
pos = (298,764);
}
);
background = {
shapes = (
{
closed = 1;
nodes = (
(169,703,o),
(100,533,o),
(100,384,cs),
(100,304,o),
(143,252,o),
(202,252,cs),
(267,252,o),
(305,314,o),
(305,389,cs),
(305,576,o),
(191,729,o),
(8,729,c),
(8,650,l),
(142,650,o),
(223,551,o),
(223,389,cs),
(223,345,o),
(214,331,o),
(202,331,cs),
(190,331,o),
(182,346,o),
(182,384,cs),
(182,496,o),
(220,621,o),
(356,621,cs),
(425,621,o),
(457,582,o),
(457,528,cs),
(457,471,o),
(439,429,o),
(402,333,cs),
(361,228,o),
(338,158,o),
(338,107,cs),
(338,37,o),
(390,-15,o),
(466,-15,cs),
(520,-15,o),
(567,24,o),
(580,43,c),
(531,101,l),
(519,86,o),
(493,67,o),
(469,67,cs),
(444,67,o),
(427,80,o),
(427,105,cs),
(427,141,o),
(451,216,o),
(488,311,cs),
(523,401,o),
(546,459,o),
(546,528,cs),
(546,628,o),
(491,703,o),
(356,703,cs)
);
},
{
closed = 1;
nodes = (
(169,703,o),
(100,533,o),
(100,384,cs),
(100,304,o),
(143,252,o),
(202,252,cs),
(267,252,o),
(305,314,o),
(305,389,cs),
(305,576,o),
(191,729,o),
(8,729,c),
(8,650,l),
(142,650,o),
(223,551,o),
(223,389,cs),
(223,345,o),
(214,331,o),
(202,331,cs),
(190,331,o),
(182,346,o),
(182,384,cs),
(182,496,o),
(220,621,o),
(356,621,cs),
(425,621,o),
(457,582,o),
(457,528,cs),
(457,471,o),
(439,429,o),
(402,333,cs),
(361,228,o),
(338,158,o),
(338,107,cs),
(338,37,o),
(390,-15,o),
(466,-15,cs),
(520,-15,o),
(567,24,o),
(580,43,c),
(531,101,l),
(519,86,o),
(493,67,o),
(469,67,cs),
(444,67,o),
(427,80,o),
(427,105,cs),
(427,141,o),
(451,216,o),
(488,311,cs),
(523,401,o),
(546,459,o),
(546,528,cs),
(546,628,o),
(491,703,o),
(356,703,cs)
);
}
);
};
guides = (
{
angle = 248.7638;
pos = (402,333);
}
);
layerId = m01;
shapes = (
{
closed = 1;
nodes = (
(283,703,o),
(227,674,o),
(206,648,c),
(203,648,l),
(173,688,o),
(99,729,o),
(8,729,c),
(8,650,l),
(68,650,o),
(118,629,o),
(151,593,c),
(114,534,o),
(97,456,o),
(97,384,cs),
(97,304,o),
(140,252,o),
(202,252,cs),
(270,252,o),
(308,314,o),
(308,389,cs),
(308,463,o),
(290,532,o),
(257,588,c),
(280,609,o),
(314,621,o),
(356,621,cs),
(425,621,o),
(457,582,o),
(457,528,cs),
(457,471,o),
(439,429,o),
(402,333,cs),
(361,228,o),
(338,158,o),
(338,107,cs),
(338,37,o),
(390,-15,o),
(466,-15,cs),
(520,-15,o),
(567,24,o),
(580,43,c),
(531,101,l),
(519,86,o),
(493,67,o),
(469,67,cs),
(444,67,o),
(427,80,o),
(427,105,cs),
(427,141,o),
(451,216,o),
(488,311,cs),
(523,401,o),
(546,459,o),
(546,528,cs),
(546,628,o),
(491,703,o),
(356,703,cs)
);
},
{
closed = 1;
nodes = (
(179,434,o),
(185,483,o),
(202,519,c),
(205,519,l),
(219,484,o),
(226,441,o),
(226,389,cs),
(226,345,o),
(217,331,o),
(202,331,cs),
(187,331,o),
(179,346,o),
(179,384,cs)
);
}
);
width = 625;
}
);
note = sunuwar_letter_nah;
script = Sunuwar;
unicode = 72653;
},
{
category = Letter;
glyphname = "bur-sunuwar";
lastChange = "2025-02-11 20:30:56 +0000";
layers = (
{
anchors = (
{
name = bottom;
pos = (359,-50);
},
{
name = top;
pos = (359,764);
}
);
background = {
shapes = (
{
closed = 1;
nodes = (
(317,1111,o),
(313,1103,o),
(312,1092,cs),
(311,1081,o),
(311,1043,o),
(311,978,cs),
(311,859,l),
(245,829,ls),
(201,810,o),
(177,797,o),
(172,790,cs),
(168,784,o),
(166,777,o),
(166,769,cs),
(166,745,o),
(186,723,o),
(210,723,cs),
(223,723,o),
(282,750,o),
(291,754,cs),
(307,762,l),
(307,746,l),
(301,675,o),
(290,622,o),
(274,587,cs),
(247,531,o),
(187,501,o),
(76,482,cs),
(54,478,o),
(40,475,o),
(34,472,cs),
(28,469,o),
(24,465,o),
(21,460,cs),
(18,454,o),
(16,448,o),
(16,441,cs),
(16,421,o),
(25,407,o),
(43,398,cs),
(56,391,l),
(98,398,ls),
(265,426,o),
(339,480,o),
(368,605,cs),
(380,649,o),
(387,700,o),
(390,759,cs),
(392,801,l),
(461,831,ls),
(496,847,o),
(519,858,o),
(530,865,cs),
(541,871,o),
(547,878,o),
(549,885,c),
(549,888,o),
(549,891,o),
(549,894,cs),
(549,919,o),
(528,943,o),
(505,943,cs),
(498,943,o),
(478,936,o),
(445,921,cs),
(395,897,l),
(392,990,ls),
(391,1051,o),
(389,1084,o),
(388,1089,c),
(379,1106,o),
(361,1120,o),
(344,1120,cs),
(337,1120,o),
(331,1118,o),
(326,1115,c)
);
},
{
closed = 1;
nodes = (
(188,382,o),
(124,428,o),
(124,463,cs),
(124,502,o),
(209,573,o),
(305,625,c),
(307,558,o),
(309,459,o),
(309,392,cs),
(309,140,o),
(248,79,o),
(-5,79,c),
(-5,0,l),
(295,0,o),
(398,86,o),
(398,392,cs),
(398,461,o),
(397,664,o),
(394,701,c),
(347,729,l),
(310,729,o),
(41,589,o),
(41,467,cs),
(41,380,o),
(141,314,o),
(207,281,c),
(247,347,l)
);
}
);
};
layerId = m01;
shapes = (
{
closed = 1;
nodes = (
(314,392,ls),
(314,135,o),
(253,79,o),
(25,79,c),
(25,0,l),
(300,0,o),
(403,86,o),
(403,392,cs),
(403,714,l),
(314,714,l)
);
},
{
closed = 1;
nodes = (
(194,306,l),
(538,464,l),
(540,539,l),
(531,545,l),
(185,388,l),
(185,313,l)
);
}
);
width = 575;
}
);
note = sunuwar_letter_bur;
script = Sunuwar;
unicode = 72654;
},
{
category = Letter;
glyphname = "jyah-sunuwar";
lastChange = "2025-02-11 20:30:56 +0000";
layers = (
{
anchors = (
{
name = bottom;
pos = (329,-50);
},
{
name = top;
pos = (329,764);
}
);
background = {
shapes = (
{
closed = 1;
nodes = (
(285,0,l),
(366,0,l),
(606,704,l),
(600,714,l),
(532,714,l),
(331,125,l),
(129,714,l),
(51,714,l),
(45,704,l)
);
},
{
closed = 1;
nodes = (
(640,497,l),
(316,497,l),
(316,418,l),
(640,418,l)
);
}
);
};
layerId = m01;
shapes = (
{
closed = 1;
nodes = (
(285,0,l),
(366,0,l),
(606,704,l),
(600,714,l),
(530,714,l),
(357,197,ls),
(349,173,o),
(341,151,o),
(333,112,c),
(329,112,l),
(321,151,o),
(313,173,o),
(305,197,cs),
(129,714,l),
(51,714,l),
(45,704,l)
);
},
{
closed = 1;
nodes = (
(640,497,l),
(316,497,l),
(316,418,l),
(640,418,l)
);
}
);
width = 685;
}
);
note = sunuwar_letter_jyah;
script = Sunuwar;
unicode = 72655;
},
{
category = Letter;
glyphname = "loacha-sunuwar";
lastChange = "2025-02-11 20:30:56 +0000";
layers = (
{
anchors = (
{
name = bottom;
pos = (244,-50);
},
{
name = top;
pos = (244,764);
}
);
background = {
shapes = (
{
closed = 1;
nodes = (
(68,-40,o),
(75,-38,o),
(80,-33,cs),
(85,-29,o),
(95,-17,o),
(111,3,cs),
(147,47,o),
(196,95,o),
(221,112,cs),
(272,144,o),
(317,156,o),
(402,163,cs),
(427,164,o),
(442,166,o),
(448,167,cs),
(454,168,o),
(459,170,o),
(463,175,cs),
(470,182,o),
(474,191,o),
(474,201,cs),
(474,211,o),
(470,220,o),
(463,229,cs),
(452,244,o),
(445,246,o),
(422,246,cs),
(376,246,o),
(327,241,o),
(276,232,c),
(276,461,ls),
(276,614,o),
(275,695,o),
(272,702,cs),
(263,719,o),
(249,728,o),
(230,728,cs),
(217,728,o),
(206,723,o),
(199,712,cs),
(196,707,o),
(195,693,o),
(195,670,cs),
(195,647,o),
(195,573,o),
(195,450,cs),
(195,199,l),
(169,183,ls),
(136,162,o),
(86,111,o),
(45,62,cs),
(23,34,o),
(12,15,o),
(12,4,cs),
(12,-21,o),
(32,-40,o),
(59,-40,cs)
);
}
);
};
guides = (
{
angle = 64.3119;
pos = (115,22);
}
);
layerId = m01;
shapes = (
{
closed = 1;
nodes = (
(150,97,o),
(240,170,o),
(413,170,cs),
(426,170,o),
(439,170,o),
(452,169,c),
(452,248,l),
(439,249,o),
(427,249,o),
(415,249,cs),
(201,249,o),
(83,148,o),
(15,7,c),
(89,-28,l)
);
},
{
closed = 1;
nodes = (
(285,159,l),
(285,714,l),
(196,714,l),
(196,159,l)
);
}
);
width = 477;
}
);
note = sunuwar_letter_loacha;
script = Sunuwar;
unicode = 72656;
},
{
category = Letter;
glyphname = "otthi-sunuwar";
lastChange = "2025-02-11 20:30:56 +0000";
layers = (
{
anchors = (
{
name = bottom;
pos = (319,-50);
},
{
name = top;
pos = (319,764);
}
);
background = {
shapes = (
{
closed = 1;
nodes = (
(161,668.667,o),
(88.667,554.333,o),
(70,397,cs),
(68.667,382.333,o),
(68,367,o),
(68,351,cs),
(68,216.333,o),
(128,77.333,o),
(212,20,cs),
(248,-4,o),
(264.333,-9,o),
(307,-9,cs),
(310.333,-9,o),
(314.667,-9,o),
(320,-9,cs),
(364,-8,l),
(393,7,ls),
(411.667,17,o),
(427.333,27.667,o),
(440,39,cs),
(492,85.667,o),
(533.667,166,o),
(551,254,cs),
(555.667,276.667,o),
(558,303.333,o),
(558,334,cs),
(558,385.333,o),
(550.667,434,o),
(536,480,cs),
(490.667,616,o),
(400.333,700,o),
(303,700,cs),
(287,700,o),
(271.667,698,o),
(257,694,cs)
);
},
{
closed = 1;
nodes = (
(477,234,o),
(422.333,117,o),
(345,81,cs),
(332.333,75,o),
(318.333,72,o),
(303,72,cs),
(289,72,o),
(276.333,74.333,o),
(265,79,cs),
(246.333,88.333,o),
(213.333,121.333,o),
(200,144,cs),
(167.333,200,o),
(151,264.667,o),
(151,338,cs),
(151,414.667,o),
(168,482,o),
(202,540,cs),
(215.333,562.667,o),
(249,595.667,o),
(265,605,cs),
(280.333,612.333,o),
(296,616,o),
(312,616,cs),
(326,616,o),
(339.667,613,o),
(353,607,cs),
(419.667,576.333,o),
(477,463.333,o),
(477,350,cs)
);
}
);
};
layerId = m01;
shapes = (
{
closed = 1;
nodes = (
(61,565,o),
(61,363,cs),
(61,136,o),
(156,-15,o),
(316,-15,cs),
(476,-15,o),
(577,136,o),
(577,360,cs),
(577,580,o),
(476,729,o),
(319,729,cs),
(156,729,o)
);
},
{
closed = 1;
nodes = (
(482,198,o),
(431,67,o),
(316,67,cs),
(207,67,o),
(156,198,o),
(156,363,cs),
(156,526,o),
(207,647,o),
(319,647,cs),
(431,647,o),
(482,526,o),
(482,360,cs)
);
}
);
width = 638;
}
);
note = sunuwar_letter_otthi;
script = Sunuwar;
unicode = 72657;
},
{
category = Letter;
glyphname = "shyer-sunuwar";
lastChange = "2025-02-11 20:30:56 +0000";
layers = (
{
anchors = (
{
name = bottom;
pos = (269,-50);
},
{
name = top;
pos = (269,764);
}
);
background = {
shapes = (
{
closed = 1;
nodes = (
(27,-201,o),
(21,-211,o),
(21,-226,cs),
(21,-236,o),
(24,-245,o),
(31,-254,c),
(31,-254,o),
(31,-254,o),
(32,-255,cs),
(39,-264,o),
(49,-269,o),
(62,-270,cs),
(75,-272,o),
(116,-273,o),
(185,-273,cs),
(187,-273,o),
(191,-273,o),
(196,-273,cs),
(201,-273,o),
(205,-273,o),
(208,-273,cs),
(278,-273,o),
(321,-273,o),
(336,-273,cs),
(351,-274,o),
(358,-275,o),
(358,-277,cs),
(358,-278,o),
(340,-318,o),
(304,-395,cs),
(251,-505,l),
(183,-505,ls),
(146,-505,o),
(123,-506,o),
(114,-507,cs),
(105,-509,o),
(99,-515,o),
(95,-524,c),
(92,-529,o),
(90,-534,o),
(90,-540,cs),
(90,-546,o),
(92,-553,o),
(96,-561,cs),
(101,-571,o),
(108,-578,o),
(117,-581,cs),
(125,-584,o),
(142,-586,o),
(167,-587,cs),
(211,-589,l),
(151,-717,ls),
(112,-801,o),
(92,-847,o),
(92,-856,cs),
(92,-883,o),
(114,-902,o),
(137,-902,cs),
(152,-902,o),
(163,-895,o),
(170,-880,cs),
(173,-871,o),
(197,-821,o),
(241,-728,cs),
(307,-589,l),
(447,-587,l),
(457,-579,ls),
(465,-572,o),
(469,-562,o),
(469,-551,cs),
(469,-541,o),
(465,-532,o),
(458,-524,cs),
(451,-516,o),
(445,-511,o),
(438,-509,cs),
(431,-507,o),
(416,-506,o),
(393,-505,cs),
(348,-504,l),
(408,-374,ls),
(449,-289,o),
(469,-242,o),
(469,-234,cs),
(469,-220,o),
(461,-208,o),
(445,-197,cs),
(435,-190,l),
(240,-190,ls),
(110,-190,o),
(43,-192,o),
(38,-195,cs)
);
},
{
closed = 1;
nodes = (
(0,635,l),
(354,635,l),
(-57,8,l),
(-53,0,l),
(36,0,l),
(470,664,l),
(449,714,l),
(0,714,l)
);
}
);
};
layerId = m01;
shapes = (
{
closed = 1;
nodes = (
(55,635,l),
(369,635,l),
(81,8,l),
(85,0,l),
(166,0,l),
(475,664,l),
(454,714,l),
(55,714,l)
);
},
{
closed = 1;
nodes = (
(460,314,l),
(460,393,l),
(108,393,l),
(108,314,l)
);
}
);
width = 520;
}
);
note = sunuwar_letter_shyer;
production = u11BD2;
script = Sunuwar;
unicode = 72658;
},
{
category = Letter;
glyphname = "varca-sunuwar";
lastChange = "2025-02-11 20:30:56 +0000";
layers = (
{
anchors = (
{
name = bottom;
pos = (355,-50);
},
{
name = top;
pos = (355,764);
}
);
background = {
anchors = (
{
name = bottom;
pos = (355,-50);
},
{
name = top;
pos = (355,764);
}
);
shapes = (
{
closed = 1;
nodes = (
(437,96,o),
(438,109,o),
(439,119,cs),
(439,120,ls),
(452,236,o),
(530,389,o),
(658,440,c),
(623,511,l),
(501,463,o),
(404,333,o),
(376,189,c),
(196,385,l),
(118,370,l),
(112,360,l),
(384,63,l),
(437,82,l)
);
},
{
ref = "one-sunuwar";
}
);
};
guides = (
{
angle = 21.7323;
pos = (557,385);
},
{
angle = 132.217;
pos = (389,179);
}
);
layerId = m01;
shapes = (
{
closed = 1;
nodes = (
(437,96,o),
(438,109,o),
(439,119,cs),
(439,120,ls),
(452,236,o),
(530,389,o),
(658,440,c),
(623,511,l),
(501,463,o),
(405,332,o),
(378,195,c),
(201,390,l),
(201,714,l),
(112,714,l),
(112,0,l),
(201,0,l),
(201,192,ls),
(201,229,o),
(201,246,o),
(199,264,c),
(202,265,l),
(213,250,o),
(224,239,o),
(247,214,cs),
(384,63,l),
(437,82,l)
);
}
);
width = 673;
}
);
metricLeft = "one-sunuwar";
note = sunuwar_letter_varca;
script = Sunuwar;
unicode = 72659;
},
{
category = Letter;
glyphname = "yat-sunuwar";
lastChange = "2025-02-11 20:30:56 +0000";
layers = (
{
anchors = (
{
name = bottom;
pos = (357,-50);
},
{
name = top;
pos = (357,764);
}
);
background = {
shapes = (
{
closed = 1;
nodes = (
(158,-27,o),
(165,-24.167,o),
(171,-18.5,cs),
(177,-12.833,o),
(185.333,-1,o),
(196,17,cs),
(215,51,l),
(234,36,ls),
(262.667,14,o),
(295,-1.333,o),
(331,-10,cs),
(345.667,-12.667,o),
(362.333,-14,o),
(381,-14,cs),
(405,-14,o),
(425.667,-11.667,o),
(443,-7,cs),
(481.667,6.333,o),
(522,36.333,o),
(546,67,cs),
(554,79,o),
(558,89.333,o),
(558,98,cs),
(558,124.667,o),
(536,144,o),
(512,144,cs),
(505.333,144,o),
(500.167,142.667,o),
(496.5,140,cs),
(492.833,137.333,o),
(484.333,129.667,o),
(471,117,cs),
(441.667,87.667,o),
(423.667,76.667,o),
(389,70,cs),
(381,68.667,o),
(374.667,68,o),
(370,68,cs),
(334,68,o),
(291.333,89,o),
(266,109,cs),
(253,121,l),
(341,276,ls),
(428.333,433.333,o),
(479,524.833,o),
(493,550.5,cs),
(507,576.167,o),
(514.333,592,o),
(515,598,cs),
(515,601.333,o),
(515,604.333,o),
(515,607,cs),
(515,623,o),
(509,637,o),
(497,649,cs),
(458.333,686.333,o),
(403.667,705,o),
(333,705,cs),
(315,705,o),
(301.333,704,o),
(292,702,cs),
(181.333,675.333,o),
(101.667,588.333,o),
(75,463,cs),
(70.333,440.333,o),
(68,416.667,o),
(68,392,cs),
(68,328.667,o),
(80.667,267.333,o),
(106,208,cs),
(113.333,189.333,o),
(129,159.333,o),
(153,118,c),
(129,74,ls),
(113,45.333,o),
(105,27.667,o),
(105,21,cs),
(105,-4.333,o),
(127.333,-27,o),
(150,-27,cs)
);
},
{
closed = 1;
nodes = (
(415.667,608.667,o),
(422,605.167,o),
(422,603.5,cs),
(422,601.833,o),
(384.333,533.333,o),
(309,398,cs),
(197,196,l),
(186,219,ls),
(162.667,268.333,o),
(151,321.333,o),
(151,378,cs),
(151,410,o),
(152.667,433,o),
(156,447,cs),
(182.667,540.333,o),
(242,602.667,o),
(322,620,c),
(328,622,o),
(335.333,623,o),
(344,623,cs),
(366.667,623,o),
(386.333,620,o),
(403,614,cs)
);
}
);
};
guides = (
{
angle = 47.3859;
pos = (569,84);
}
);
layerId = m01;
shapes = (
{
closed = 1;
nodes = (
(252,67,o),
(156,197,o),
(156,361,cs),
(156,530,o),
(235,647,o),
(358,647,cs),
(414,647,o),
(436,625,o),
(436,613,cs),
(436,603,o),
(430,590,o),
(380,494,cs),
(128,12,l),
(204,-27,l),
(456,455,ls),
(520,578,o),
(530,595,o),
(530,621,cs),
(530,665,o),
(466,729,o),
(363,729,cs),
(189,729,o),
(61,571,o),
(61,361,cs),
(61,120,o),
(225,-15,o),
(371,-15,cs),
(492,-15,o),
(554,51,o),
(588,105,c),
(522,155,l),
(501,118,o),
(451,67,o),
(371,67,cs)
);
}
);
width = 618;
}
);
note = sunuwar_letter_yat;
script = Sunuwar;
unicode = 72660;
},
{
category = Letter;
glyphname = "ava-sunuwar";
lastChange = "2025-02-11 20:30:56 +0000";
layers = (
{
anchors = (
{
name = bottom;
pos = (425,-50);
},
{
name = top;
pos = (425,764);
}
);
background = {
shapes = (
{
closed = 1;
nodes = (
(624,84,o),
(585,101,o),
(570,122,cs),
(565,129,o),
(563,136,o),
(563,144,cs),
(563,151,o),
(565,160,o),
(570,171,cs),
(585,202,o),
(619,222,o),
(660,226,cs),
(680,228,o),
(693,234,o),
(699,245,cs),
(702,250,o),
(703,289,o),
(703,361,cs),
(703,385,o),
(703,420,o),
(703,467,cs),
(702,572,o),
(702,634,o),
(701,653,cs),
(700,672,o),
(698,683,o),
(695,688,cs),
(684,703,o),
(671,710,o),
(656,710,cs),
(650,710,o),
(644,708,o),
(639,705,cs),
(630,701,o),
(625,693,o),
(623,680,cs),
(621,667,o),
(620,631,o),
(620,572,cs),
(620,465,l),
(383,465,l),
(382,572,ls),
(381,623,o),
(381,654,o),
(381,665,cs),
(380,676,o),
(378,683,o),
(374,688,cs),
(371,693,o),
(365,698,o),
(358,703,cs),
(348,710,l),
(206,710,ls),
(111,710,o),
(60,708,o),
(55,705,cs),
(44,699,o),
(39,689,o),
(39,674,cs),
(39,664,o),
(42,655,o),
(48,646,cs),
(55,637,o),
(65,631,o),
(77,630,cs),
(88,628,o),
(124,627,o),
(185,627,cs),
(186,627,o),
(186,627,o),
(187,627,cs),
(300,627,l),
(298,159,l),
(290,141,ls),
(273,104,o),
(240,82,o),
(205,82,cs),
(157,82,o),
(125,120,o),
(120,171,cs),
(117,197,o),
(106,213,o),
(87,220,cs),
(58,231,o),
(37,212,o),
(37,183,cs),
(37,122,o),
(71,64,o),
(120,29,cs),
(151,6,o),
(169,1,o),
(209,1,cs),
(252,1,o),
(262,3,o),
(286,14,cs),
(319,31,o),
(344,56,o),
(361,89,cs),
(371,110,o),
(377,129,o),
(380,147,cs),
(382,165,o),
(383,206,o),
(383,271,cs),
(383,383,l),
(620,383,l),
(620,307,l),
(602,302,ls),
(533,282,o),
(481,220,o),
(481,155,cs),
(481,148,o),
(482,141,o),
(483,134,cs),
(498,57,o),
(575,1,o),
(674,1,cs),
(730,1,o),
(763,20,o),
(763,49,cs),
(763,65,o),
(755,78,o),
(739,89,cs),
(734,93,o),
(728,95,o),
(721,95,cs),
(717,95,o),
(708,93,o),
(693,90,cs),
(678,86,o),
(667,84,o),
(660,84,cs)
);
}
);
};
layerId = m01;
shapes = (
{
closed = 1;
nodes = (
(627,67,o),
(581,88,o),
(581,136,cs),
(581,188,o),
(632,208,o),
(682,215,cs),
(694,217,o),
(703,218,o),
(708,219,c),
(715,227,l),
(715,714,l),
(626,714,l),
(626,462,l),
(387,462,l),
(387,714,l),
(50,714,l),
(50,635,l),
(298,635,l),
(298,219,ls),
(298,104,o),
(268,67,o),
(213,67,cs),
(162,67,o),
(125,99,o),
(125,163,cs),
(125,193,l),
(35,193,l),
(35,163,ls),
(35,48,o),
(100,-15,o),
(213,-15,cs),
(322,-15,o),
(387,42,o),
(387,219,cs),
(387,383,l),
(626,383,l),
(626,292,l),
(540,268,o),
(486,220,o),
(486,140,cs),
(486,52,o),
(557,-15,o),
(665,-15,cs),
(722,-15,o),
(761,12,o),
(774,28,c),
(733,93,l),
(724,86,o),
(700,67,o),
(665,67,cs)
);
}
);
width = 829;
}
);
note = sunuwar_letter_ava;
script = Sunuwar;
unicode = 72661;
},
{
category = Letter;
glyphname = "aal-sunuwar";
lastChange = "2025-02-11 20:30:56 +0000";
layers = (
{
anchors = (
{
name = bottom;
pos = (327,-50);
},
{
name = top;
pos = (327,764);
}
);
background = {
shapes = (
{
closed = 1;
nodes = (
(55,689,o),
(50,679,o),
(50,664,cs),
(50,644,o),
(64,625,o),
(80,621,cs),
(88,619,o),
(108,618,o),
(140,617,cs),
(200,616,l),
(140,523,ls),
(114,484,o),
(97,458,o),
(90,445,cs),
(83,432,o),
(79,422,o),
(79,415,cs),
(79,411,o),
(80,405,o),
(83,398,c),
(88,391,o),
(94,384,o),
(103,379,cs),
(112,373,o),
(131,364,o),
(160,351,cs),
(195,336,o),
(213,328,o),
(213,326,cs),
(213,322,o),
(99,162,o),
(99,160,c),
(96,156,o),
(94,150,o),
(94,143,cs),
(94,135,o),
(96,128,o),
(99,123,cs),
(104,113,o),
(116,105,o),
(134,98,cs),
(151,91,o),
(209,73,o),
(308,44,cs),
(435,7,o),
(501,-12,o),
(506,-12,cs),
(521,-12,o),
(533,-2,o),
(536,11,c),
(539,18,o),
(541,83,o),
(541,207,cs),
(541,246,o),
(541,292,o),
(541,345,cs),
(540,506,o),
(539,601,o),
(538,629,cs),
(537,657,o),
(535,673,o),
(532,678,c),
(527,683,o),
(522,688,o),
(517,693,c),
(506,700,l),
(290,700,ls),
(146,700,o),
(71,698,o),
(66,695,cs)
);
},
{
closed = 1;
nodes = (
(457,174,o),
(456,86,o),
(455,86,cs),
(452,86,o),
(209,156,o),
(209,160,cs),
(209,164,o),
(226,191,o),
(261,241,cs),
(285,276,o),
(301,299,o),
(309,312,cs),
(317,324,o),
(321,334,o),
(321,341,cs),
(321,346,o),
(319,353,o),
(314,362,c),
(308,369,o),
(301,375,o),
(293,380,cs),
(285,385,o),
(262,395,o),
(224,411,cs),
(197,422,o),
(184,429,o),
(184,432,cs),
(184,433,o),
(219,486,o),
(288,591,cs),
(305,617,l),
(457,617,l)
);
},
{
closed = 1;
nodes = (
(-334,1335,l),
(-190,1335,l),
(-280,1202,ls),
(-303,1169,o),
(-321,1142,o),
(-321,1123,cs),
(-321,1107,o),
(-312,1096,o),
(-297,1089,cs),
(-223,1054,ls),
(-205,1046,o),
(-187,1038,o),
(-187,1036,cs),
(-187,1035,o),
(-195,1023,o),
(-206,1006,c),
(-281,900,ls),
(-293,882,o),
(-306,860,o),
(-306,853,cs),
(-306,829,o),
(-289,817,o),
(-266,808,c),
(-110,754,ls),
(7,717,o),
(101,688,o),
(106,688,c),
(137,711,l),
(137,1414,l),
(-334,1414,l)
);
},
{
closed = 1;
nodes = (
(48,786,l),
(46,786,o),
(-97,834,o),
(-161,858,cs),
(-179,864,o),
(-191,869,o),
(-191,870,cs),
(-191,874,o),
(-184,886,o),
(-161,920,cs),
(-91,1022,ls),
(-83,1034,o),
(-79,1047,o),
(-79,1054,cs),
(-79,1071,o),
(-91,1083,o),
(-107,1090,cs),
(-176,1121,ls),
(-203,1133,o),
(-216,1139,o),
(-216,1142,cs),
(-216,1149,o),
(-200,1172,o),
(-177,1206,cs),
(-90,1335,l),
(48,1335,l)
);
},
{
closed = 1;
nodes = (
(566,635,l),
(710,635,l),
(573,431,l),
(572,428,o),
(572,422,o),
(572,417,cs),
(573,410,o),
(575,404,o),
(577,401,c),
(661,362,l),
(713,336,l),
(675,278,l),
(588,146,l),
(587,140,o),
(587,133,o),
(589,127,cs),
(591,120,o),
(593,114,o),
(597,111,c),
(1006,-15,l),
(1037,11,l),
(1037,714,l),
(566,714,l)
);
},
{
closed = 1;
nodes = (
(948,86,l),
(748,148,l),
(706,162,l),
(739,213,l),
(828,351,l),
(828,355,o),
(828,359,o),
(827,364,cs),
(826,369,o),
(824,374,o),
(822,377,c),
(683,446,l),
(810,635,l),
(948,635,l)
);
}
);
};
guides = (
{
angle = 236.0035;
pos = (72,571);
},
{
angle = 236.0035;
pos = (302,554);
}
);
layerId = m01;
shapes = (
{
closed = 1;
nodes = (
(75,635,l),
(219,635,l),
(124,494,ls),
(99,457,o),
(85,441,o),
(85,422,cs),
(85,406,o),
(97,396,o),
(112,389,cs),
(186,354,ls),
(210,342,o),
(216,339,o),
(216,331,cs),
(216,322,o),
(209,315,o),
(193,292,cs),
(128,200,ls),
(109,174,o),
(102,163,o),
(102,147,cs),
(102,127,o),
(120,117,o),
(143,106,cs),
(225,66,o),
(354,19,o),
(506,-11,c),
(546,25,l),
(546,714,l),
(75,714,l)
);
},
{
closed = 1;
nodes = (
(457,87,l),
(368,105,o),
(287,137,o),
(255,151,cs),
(228,163,o),
(221,166,o),
(221,174,cs),
(221,182,o),
(226,188,o),
(248,220,cs),
(318,322,ls),
(326,334,o),
(333,344,o),
(333,358,cs),
(333,375,o),
(320,382,o),
(302,390,cs),
(233,421,ls),
(206,433,o),
(196,437,o),
(196,446,cs),
(196,453,o),
(200,458,o),
(222,491,cs),
(319,635,l),
(457,635,l)
);
}
);
width = 658;
}
);
metricRight = "one-sunuwar";
note = sunuwar_letter_aal;
script = Sunuwar;
unicode = 72662;
},
{
category = Letter;
glyphname = "donga-sunuwar";
lastChange = "2025-02-11 20:30:56 +0000";
layers = (
{
anchors = (
{
name = bottom;
pos = (322,-50);
},
{
name = top;
pos = (322,764);
}
);
background = {
shapes = (
{
closed = 1;
nodes = (
(246,67,o),
(167,126,o),
(121,187,c),
(53,133,l),
(109,57,o),
(217,-15,o),
(346,-15,cs),
(500,-15,o),
(637,101,o),
(637,260,cs),
(637,396,o),
(556,460,o),
(465,460,cs),
(406,460,o),
(371,435,o),
(356,419,c),
(356,635,l),
(608,635,l),
(608,714,l),
(45,714,l),
(45,635,l),
(267,635,l),
(267,258,l),
(318,244,l),
(352,320,o),
(386,378,o),
(450,378,cs),
(515,378,o),
(542,323,o),
(542,260,cs),
(542,142,o),
(456,67,o),
(344,67,cs)
);
}
);
};
layerId = m01;
shapes = (
{
closed = 1;
nodes = (
(246,67,o),
(167,126,o),
(121,187,c),
(53,133,l),
(109,57,o),
(217,-15,o),
(346,-15,cs),
(500,-15,o),
(637,101,o),
(637,260,cs),
(637,396,o),
(556,460,o),
(465,460,cs),
(406,460,o),
(371,435,o),
(359,415,c),
(356,416,l),
(356,635,l),
(608,635,l),
(608,714,l),
(45,714,l),
(45,635,l),
(267,635,l),
(267,258,l),
(318,244,l),
(352,320,o),
(386,378,o),
(450,378,cs),
(515,378,o),
(542,323,o),
(542,260,cs),
(542,142,o),
(456,67,o),
(344,67,cs)
);
}
);
width = 698;
}
);
note = sunuwar_letter_donga;
script = Sunuwar;
unicode = 72663;
},
{
category = Letter;
glyphname = "thari-sunuwar";
lastChange = "2025-02-11 20:30:56 +0000";
layers = (
{
anchors = (
{
name = bottom;
pos = (384,-50);
},
{
name = top;
pos = (384,764);
}
);
background = {
shapes = (
{
closed = 1;
nodes = (
(603,11,o),
(621,-12,o),
(650,-12,cs),
(660,-12,o),
(668,-9,o),
(674,-2,cs),
(679,2,o),
(682,9,o),
(683,18,cs),
(684,27,o),
(686,53,o),
(690,98,cs),
(692,132,o),
(693,158,o),
(693,177,cs),
(693,206,o),
(690,231,o),
(685,252,cs),
(662,343,o),
(585,403,o),
(468,424,c),
(457,425,l),
(456,562,ls),
(456,623,o),
(454,659,o),
(453,670,cs),
(452,681,o),
(451,689,o),
(448,694,cs),
(437,709,o),
(433,714,o),
(399,714,cs),
(81,714,l),
(81,635,l),
(373,635,l),
(373,429,l),
(337,426,ls),
(242,415,o),
(170,385,o),
(119,336,cs),
(81,298,o),
(62,253,o),
(62,202,cs),
(62,153,o),
(80,108,o),
(117,67,cs),
(134,47,o),
(175,20,o),
(200,9,cs),
(231,-4,o),
(268,-11,o),
(310,-11,cs),
(338,-11,o),
(341,-11,o),
(362,1,cs),
(397,18,o),
(422,50,o),
(439,97,cs),
(452,137,o),
(456,167,o),
(456,259,cs),
(456,342,l),
(508,332,o),
(544,319,o),
(564,304,cs),
(601,276,o),
(610,251,o),
(610,186,cs),
(610,176,o),
(609,153,o),
(607,118,cs),
(604,82,o),
(603,57,o),
(603,44,cs)
);
},
{
closed = 1;
nodes = (
(372,204,o),
(372,180,o),
(371,171,cs),
(370,162,o),
(368,151,o),
(363,140,cs),
(352,105,o),
(336,84,o),
(315,75,cs),
(308,72,o),
(300,70,o),
(292,70,cs),
(232,70,o),
(175,106,o),
(154,146,cs),
(148,158,o),
(145,173,o),
(145,192,cs),
(145,210,o),
(148,224,o),
(154,235,cs),
(179,290,o),
(250,329,o),
(342,340,cs),
(372,344,l),
(373,334,o),
(373,322,o),
(373,307,cs),
(373,288,o),
(373,266,o),
(373,243,cs)
);
}
);
};
layerId = m01;
shapes = (
{
closed = 1;
nodes = (
(547,345,o),
(615,280,o),
(615,186,cs),
(615,116,o),
(602,63,o),
(592,21,c),
(675,7,l),
(690,52,o),
(704,119,o),
(704,177,cs),
(704,324,o),
(598,427,o),
(419,427,cs),
(234,427,o),
(55,358,o),
(55,197,cs),
(55,66,o),
(179,-15,o),
(297,-15,cs),
(389,-15,o),
(467,53,o),
(467,183,cs),
(467,714,l),
(86,714,l),
(86,635,l),
(378,635,l),
(378,183,ls),
(378,116,o),
(348,67,o),
(297,67,cs),
(218,67,o),
(150,127,o),
(150,197,cs),
(150,314,o),
(298,341,o),
(419,345,c)
);
}
);
width = 749;
}
);
note = sunuwar_letter_thari;
script = Sunuwar;
unicode = 72664;
},
{
category = Letter;
glyphname = "phar-sunuwar";
lastChange = "2025-02-11 20:30:56 +0000";
layers = (
{
anchors = (
{
name = bottom;
pos = (396,-50);
},
{
name = top;
pos = (396,764);
}
);
background = {
shapes = (
{
closed = 1;
nodes = (
(461,381,o),
(322,729,o),
(109,729,cs),
(-60,729,o),
(-139,545,o),
(-139,361,cs),
(-139,164,o),
(-48,-15,o),
(108,-15,cs),
(322,-15,o),
(455,321,o),
(481,599,cs),
(483,620,o),
(485,641,o),
(488,692,c),
(395,699,l),
(394,669,o),
(393,641,o),
(390,610,cs),
(368,345,o),
(243,67,o),
(108,67,cs),
(26,67,o),
(-44,199,o),
(-44,361,cs),
(-44,484,o),
(6,647,o),
(109,647,cs),
(243,647,o),
(383,324,o),
(393,91,cs),
(394,58,o),
(397,19,o),
(396,3,c),
(485,9,l),
(485,28,o),
(484,66,o),
(482,93,cs)
);
},
{
closed = 1;
nodes = (
(684,648,o),
(685,686,o),
(685,705,c),
(596,711,l),
(597,695,o),
(594,656,o),
(593,623,cs),
(591,583,o),
(586,542,o),
(578,501,c),
(514,633,o),
(422,729,o),
(308,729,cs),
(152,729,o),
(61,550,o),
(61,353,cs),
(61,169,o),
(140,-15,o),
(309,-15,cs),
(410,-15,o),
(494,62,o),
(549,161,cs),
(559,178,o),
(568,195,o),
(575,222,c),
(578,222,l),
(584,177,o),
(587,140,o),
(590,104,cs),
(593,73,o),
(594,45,o),
(595,15,c),
(688,22,l),
(685,73,o),
(683,94,o),
(681,115,cs),
(674,194,o),
(657,280,o),
(633,359,c),
(659,445,o),
(676,536,o),
(682,621,cs)
);
},
{
closed = 1;
nodes = (
(156,515,o),
(226,647,o),
(308,647,cs),
(399,647,o),
(486,520,o),
(539,358,c),
(484,201,o),
(395,67,o),
(309,67,cs),
(206,67,o),
(156,230,o),
(156,353,cs)
);
}
);
};
layerId = m01;
shapes = (
{
closed = 1;
nodes = (
(676,178,o),
(659,269,o),
(633,355,c),
(657,434,o),
(674,520,o),
(681,599,cs),
(683,620,o),
(685,641,o),
(688,692,c),
(595,699,l),
(594,669,o),
(593,641,o),
(590,610,cs),
(587,574,o),
(584,537,o),
(578,492,c),
(575,492,l),
(568,519,o),
(559,536,o),
(549,553,cs),
(494,652,o),
(410,729,o),
(309,729,cs),
(140,729,o),
(61,545,o),
(61,361,cs),
(61,164,o),
(152,-15,o),
(308,-15,cs),
(407,-15,o),
(492,59,o),
(551,164,cs),
(561,182,o),
(569,200,o),
(575,222,c),
(578,222,l),
(586,175,o),
(591,131,o),
(593,91,cs),
(594,58,o),
(597,19,o),
(596,3,c),
(685,9,l),
(685,28,o),
(684,66,o),
(682,93,cs)
);
},
{
closed = 1;
nodes = (
(156,484,o),
(206,647,o),
(309,647,cs),
(395,647,o),
(484,513,o),
(539,356,c),
(486,194,o),
(399,67,o),
(308,67,cs),
(226,67,o),
(156,199,o),
(156,361,cs)
);
}
);
width = 763;
}
);
note = sunuwar_letter_phar;
script = Sunuwar;
unicode = 72665;
},
{
category = Letter;
glyphname = "ngar-sunuwar";
lastChange = "2025-02-11 20:30:56 +0000";
layers = (
{
anchors = (
{
name = bottom;
pos = (280,-50);
},
{
name = top;
pos = (280,764);
}
);
background = {
shapes = (
{
closed = 1;
nodes = (
(194,355,o),
(213,358,o),
(242,358,cs),
(350,358,o),
(437,311,o),
(437,211,cs),
(437,122,o),
(370,67,o),
(285,67,cs),
(200,67,o),
(142,111,o),
(107,168,c),
(35,117,l),
(77,47,o),
(158,-15,o),
(285,-15,cs),
(434,-15,o),
(532,84,o),
(532,211,cs),
(532,363,o),
(400,430,o),
(320,430,c),
(365,467,o),
(476,577,o),
(519,663,c),
(497,714,l),
(99,714,l),
(99,635,l),
(398,635,l),
(367,582,o),
(284,496,o),
(190,433,cs),
(172,421,o),
(158,412,o),
(146,405,c),
(162,350,l)
);
}
);
};
guides = (
{
angle = -62.418;
pos = (59,84);
}
);
layerId = m01;
shapes = (
{
closed = 1;
nodes = (
(194,355,o),
(213,358,o),
(242,358,cs),
(350,358,o),
(437,311,o),
(437,211,cs),
(437,122,o),
(370,67,o),
(285,67,cs),
(200,67,o),
(142,111,o),
(107,168,c),
(35,117,l),
(77,47,o),
(158,-15,o),
(285,-15,cs),
(434,-15,o),
(532,84,o),
(532,211,cs),
(532,363,o),
(400,430,o),
(320,430,c),
(319,433,l),
(368,471,o),
(477,578,o),
(519,663,c),
(497,714,l),
(99,714,l),
(99,635,l),
(398,635,l),
(367,582,o),
(284,496,o),
(190,433,cs),
(172,421,o),
(158,412,o),
(146,405,c),
(162,350,l)
);
}
);
width = 593;
}
);
note = sunuwar_letter_ngar;
script = Sunuwar;
unicode = 72666;
},
{
category = Letter;
glyphname = "kha-sunuwar";
lastChange = "2025-02-11 20:30:56 +0000";
layers = (
{
anchors = (
{
name = bottom;
pos = (342,-50);
},
{
name = top;
pos = (342,764);
}
);
background = {
shapes = (
{
closed = 1;
nodes = (
(670,74,o),
(648,96,o),
(628,96,cs),
(619,96,o),
(609,92,o),
(596,84,cs),
(583,76,o),
(572,72,o),
(562,72,cs),
(549,72,o),
(538,80,o),
(529,97,cs),
(523,108,o),
(520,206,o),
(520,391,cs),
(520,575,o),
(518,671,o),
(513,678,cs),
(509,683,o),
(503,688,o),
(496,693,cs),
(487,700,l),
(313,700,ls),
(231,700,o),
(181,700,o),
(164,700,cs),
(146,699,o),
(135,697,o),
(131,694,cs),
(125,691,o),
(121,686,o),
(119,679,cs),
(116,672,o),
(115,562,o),
(115,348,cs),
(115,337,o),
(115,323,o),
(115,304,cs),
(115,285,o),
(115,272,o),
(115,264,cs),
(115,141,o),
(116,68,o),
(118,45,cs),
(119,22,o),
(124,7,o),
(131,1,cs),
(132,0,o),
(133,0,o),
(133,-1,c),
(139,-6,o),
(148,-9,o),
(159,-9,cs),
(170,-9,o),
(177,-8,o),
(181,-5,c),
(181,-5,o),
(182,-5,o),
(183,-5,c),
(189,-2,o),
(193,13,o),
(195,38,cs),
(196,63,o),
(197,148,o),
(197,292,cs),
(197,295,o),
(197,299,o),
(197,305,cs),
(197,311,o),
(197,315,o),
(197,318,cs),
(197,617,l),
(439,617,l),
(439,372,ls),
(439,237,o),
(440,157,o),
(441,132,cs),
(442,107,o),
(447,84,o),
(456,65,cs),
(468,40,o),
(494,14,o),
(518,1,cs),
(533,-6,o),
(538,-8,o),
(571,-9,cs),
(581,-9,o),
(588,-9,o),
(593,-9,cs),
(630,-9,o),
(670,25,o),
(670,50,cs)
);
}
);
};
layerId = m01;
shapes = (
{
closed = 1;
nodes = (
(628,91,l),
(616,79,o),
(600,67,o),
(580,67,cs),
(556,67,o),
(535,86,o),
(535,156,cs),
(535,714,l),
(112,714,l),
(112,0,l),
(201,0,l),
(201,635,l),
(446,635,l),
(446,155,ls),
(446,45,o),
(491,-15,o),
(574,-15,cs),
(626,-15,o),
(659,15,o),
(674,31,c)
);
}
);
width = 679;
}
);
metricLeft = "one-sunuwar";
note = sunuwar_letter_kha;
script = Sunuwar;
unicode = 72667;
},
{
category = Letter;
glyphname = "shyele-sunuwar";
lastChange = "2025-02-11 20:30:56 +0000";
layers = (
{
anchors = (
{
name = bottom;
pos = (319,-50);
},
{
name = top;
pos = (319,764);
}
);
background = {
shapes = (
{
closed = 1;
nodes = (
(90,672,o),
(89,589,o),
(89,430,cs),
(89,302,o),
(90,225,o),
(91,198,cs),
(92,171,o),
(98,148,o),
(107,128,cs),
(130,69,o),
(180,20,o),
(239,0,cs),
(252,-5,o),
(274,-8,o),
(307,-9,cs),
(318,-9,o),
(327,-9,o),
(333,-9,cs),
(349,-9,o),
(363,-7,o),
(375,-3,cs),
(436,14,o),
(482,60,o),
(509,117,cs),
(518,137,o),
(523,160,o),
(525,185,cs),
(526,210,o),
(527,282,o),
(527,400,cs),
(527,617,l),
(648,617,l),
(657,626,ls),
(666,634,o),
(670,643,o),
(670,653,cs),
(670,664,o),
(666,673,o),
(659,681,cs),
(652,690,o),
(643,696,o),
(634,698,cs),
(624,699,o),
(596,700,o),
(551,700,cs),
(498,700,o),
(468,698,o),
(461,695,c),
(461,695,o),
(461,695,o),
(461,694,c),
(452,690,o),
(447,678,o),
(446,659,cs),
(444,639,o),
(443,574,o),
(443,465,cs),
(443,462,o),
(443,456,o),
(443,449,cs),
(443,442,o),
(443,436,o),
(443,431,cs),
(443,273,o),
(442,189,o),
(441,180,cs),
(435,156,o),
(422,134,o),
(401,113,cs),
(374,84,o),
(341,70,o),
(302,70,cs),
(247,70,o),
(197,104,o),
(177,160,cs),
(174,166,o),
(173,252,o),
(173,419,cs),
(171,542,o),
(170,615,o),
(169,638,cs),
(168,660,o),
(167,673,o),
(164,678,c),
(152,693,o),
(139,700,o),
(124,700,cs),
(108,700,o),
(98,693,o),
(93,679,cs)
);
}
);
};
layerId = m01;
shapes = (
{
closed = 1;
nodes = (
(95,219,ls),
(95,31,o),
(210,-15,o),
(319,-15,cs),
(428,-15,o),
(539,31,o),
(539,219,cs),
(539,635,l),
(660,635,l),
(660,714,l),
(450,714,l),
(448,221,ls),
(447,91,o),
(394,67,o),
(319,67,cs),
(244,67,o),
(184,91,o),
(184,221,cs),
(184,714,l),
(95,714,l)
);
}
);
width = 685;
}
);
note = sunuwar_letter_shyele;
script = Sunuwar;
unicode = 72668;
},
{
category = Letter;
glyphname = "chelap-sunuwar";
lastChange = "2025-02-11 20:30:56 +0000";
layers = (
{
anchors = (
{
name = bottom;
pos = (383,-50);
},
{
name = top;
pos = (383,764);
}
);
background = {
shapes = (
{
closed = 1;
nodes = (
(64,616,o),
(76,600,o),
(99,584,cs),
(199,520,o),
(255,413,o),
(255,300,cs),
(255,265,o),
(249,230,o),
(237,196,cs),
(232,179,o),
(227,170,o),
(224,168,cs),
(136,126,o),
(72,90,o),
(33,61,cs),
(24,54,o),
(20,43,o),
(20,30,cs),
(20,6,o),
(39,-17,o),
(66,-17,cs),
(72,-17,o),
(90,-7,o),
(121,13,cs),
(218,76,o),
(298,107,o),
(363,107,cs),
(389,107,o),
(416,103,o),
(444,94,cs),
(487,81,o),
(538,56,o),
(598,17,cs),
(633,-5,o),
(655,-16,o),
(662,-16,cs),
(679,-16,o),
(697,0,o),
(697,19,cs),
(697,25,o),
(696,32,o),
(693,40,c),
(688,48,o),
(677,59,o),
(658,72,cs),
(609,103,o),
(570,127,o),
(539,142,cs),
(510,155,l),
(512,187,ls),
(519,299,o),
(573,402,o),
(664,474,cs),
(686,493,o),
(697,508,o),
(697,519,cs),
(697,546,o),
(675,567,o),
(651,567,cs),
(642,567,o),
(632,562,o),
(620,552,cs),
(576,521,o),
(537,479,o),
(504,428,cs),
(461,363,o),
(437,289,o),
(431,208,cs),
(429,182,l),
(418,185,l),
(418,185,o),
(387,188,o),
(325,193,c),
(325,193,o),
(327,201,o),
(330,216,cs),
(334,232,o),
(336,255,o),
(336,286,cs),
(336,322,o),
(334,351,o),
(330,373,cs),
(307,477,o),
(255,561,o),
(176,626,cs),
(139,655,o),
(112,670,o),
(94,670,cs),
(77,670,o),
(64,652,o),
(64,633,cs)
);
}
);
};
guides = (
{
angle = 24.5277;
pos = (642,568);
},
{
angle = 149.3277;
pos = (201,670);
}
);
layerId = m01;
shapes = (
{
closed = 1;
nodes = (
(131,29,o),
(244,102,o),
(382,102,cs),
(511,102,o),
(604,32,o),
(653,-15,c),
(711,44,l),
(661,94,o),
(548,184,o),
(382,184,cs),
(201,184,o),
(83,93,o),
(25,47,c),
(75,-15,l)
);
},
{
closed = 1;
nodes = (
(336,180,l),
(342,204,o),
(349,243,o),
(349,293,cs),
(349,455,o),
(294,614,o),
(101,729,c),
(54,657,l),
(206,567,o),
(260,436,o),
(260,293,cs),
(260,227,o),
(249,189,o),
(235,162,c)
);
},
{
closed = 1;
nodes = (
(514,325,o),
(595,459,o),
(713,514,c),
(678,584,l),
(528,514,o),
(428,359,o),
(425,179,c),
(514,157,l)
);
}
);
width = 748;
}
);
note = sunuwar_letter_cha;
script = Sunuwar;
unicode = 72669;
},
{
category = Letter;
glyphname = "tentu-sunuwar";
lastChange = "2025-02-11 20:30:56 +0000";
layers = (
{
anchors = (
{
name = bottom;
pos = (316,-50);
},
{
name = top;
pos = (316,764);
}
);
background = {
shapes = (
{
closed = 1;
nodes = (
(72,635,l),
(426,635,l),
(15,8,l),
(19,0,l),
(108,0,l),
(542,664,l),
(521,714,l),
(72,714,l)
);
},
{
closed = 1;
nodes = (
(286,377,l),
(537,0,l),
(626,0,l),
(630,8,l),
(331,457,l)
);
}
);
};
guides = (
{
angle = 236.7562;
pos = (235,343);
}
);
layerId = m01;
shapes = (
{
closed = 1;
nodes = (
(72,635,l),
(426,635,l),
(15,8,l),
(19,0,l),
(108,0,l),
(260,232,ls),
(294,285,o),
(308,307,o),
(319,329,c),
(322,329,l),
(334,307,o),
(349,283,o),
(384,230,cs),
(537,0,l),
(626,0,l),
(630,8,l),
(369,400,l),
(542,664,l),
(521,714,l),
(72,714,l)
);
}
);
width = 655;
}
);
note = sunuwar_letter_tta;
script = Sunuwar;
unicode = 72670;
},
{
category = Letter;
glyphname = "thele-sunuwar";
lastChange = "2025-02-11 20:30:56 +0000";
layers = (
{
anchors = (
{
name = bottom;
pos = (288,-50);
},
{
name = top;
pos = (288,764);
}
);
background = {
shapes = (
{
closed = 1;
nodes = (
(532,-755,o),
(528,-746,o),
(521,-738,cs),
(520,-737,o),
(520,-737,o),
(520,-736,c),
(513,-728,o),
(502,-723,o),
(489,-722,cs),
(475,-721,o),
(432,-720,o),
(359,-720,cs),
(356,-720,o),
(352,-720,o),
(345,-720,cs),
(338,-720,o),
(332,-720,o),
(328,-720,cs),
(217,-720,o),
(162,-717,o),
(162,-717,c),
(163,-715,o),
(184,-681,o),
(227,-616,cs),
(291,-518,l),
(510,-518,l),
(520,-509,ls),
(528,-501,o),
(532,-492,o),
(532,-482,cs),
(532,-472,o),
(528,-462,o),
(521,-453,cs),
(514,-445,o),
(506,-440,o),
(498,-439,cs),
(489,-438,o),
(464,-437,o),
(423,-436,cs),
(346,-434,l),
(437,-294,ls),
(498,-200,o),
(530,-151,o),
(531,-146,cs),
(532,-143,o),
(532,-141,o),
(532,-139,cs),
(532,-122,o),
(520,-103,o),
(504,-95,cs),
(497,-92,o),
(425,-90,o),
(287,-90,cs),
(140,-90,o),
(64,-92,o),
(58,-95,cs),
(47,-101,o),
(41,-111,o),
(41,-126,cs),
(41,-136,o),
(44,-145,o),
(51,-154,c),
(51,-154,o),
(51,-154,o),
(52,-155,cs),
(59,-164,o),
(69,-169,o),
(83,-170,cs),
(96,-172,o),
(140,-173,o),
(213,-173,cs),
(216,-173,o),
(221,-173,o),
(228,-173,cs),
(235,-173,o),
(240,-173,o),
(244,-173,cs),
(326,-173,o),
(409,-173,o),
(409,-176,c),
(408,-178,o),
(348,-272,o),
(227,-457,cs),
(106,-642,o),
(45,-738,o),
(42,-744,cs),
(41,-747,o),
(40,-750,o),
(40,-755,cs),
(40,-766,o),
(45,-776,o),
(54,-787,cs),
(67,-799,l),
(513,-799,l),
(526,-787,o),
(532,-776,o),
(532,-766,cs)
);
},
{
closed = 1;
nodes = (
(510,79,l),
(156,79,l),
(567,706,l),
(563,714,l),
(474,714,l),
(40,50,l),
(61,0,l),
(510,0,l)
);
},
{
closed = 1;
nodes = (
(49,635,l),
(423,635,l),
(53,70,l),
(57,62,l),
(105,0,l),
(540,664,l),
(519,714,l),
(49,714,l)
);
},
{
closed = 1;
nodes = (
(531,79,l),
(157,79,l),
(538,660,l),
(534,668,l),
(475,714,l),
(40,50,l),
(61,0,l),
(531,0,l)
);
},
{
closed = 1;
nodes = (
(524,294,l),
(524,373,l),
(272,373,l),
(272,294,l)
);
}
);
};
layerId = m01;
shapes = (
{
closed = 1;
nodes = (
(54,635,l),
(428,635,l),
(58,70,l),
(45,50,l),
(66,0,l),
(536,0,l),
(536,79,l),
(162,79,l),
(543,660,l),
(543,661,l),
(545,664,l),
(524,714,l),
(54,714,l)
);
},
{
closed = 1;
nodes = (
(529,294,l),
(529,373,l),
(277,373,l),
(277,294,l)
);
}
);
width = 610;
}
);
note = sunuwar_letter_ttha;
script = Sunuwar;
unicode = 72671;
},
{
category = Letter;
glyphname = "kloko-sunuwar";
lastChange = "2025-02-11 20:30:56 +0000";
layers = (
{
anchors = (
{
name = bottom;
pos = (329,-50);
},
{
name = top;
pos = (329,764);
}
);
background = {
shapes = (
{
closed = 1;
nodes = (
(113,45,o),
(191,-15,o),
(313,-15,cs),
(461,-15,o),
(597,97,o),
(597,316,cs),
(597,543,o),
(460,636,o),
(335,636,cs),
(259,636,o),
(200,599,o),
(175,568,c),
(175,714,l),
(86,714,l),
(86,393,l),
(166,365,l),
(175,375,l),
(175,477,o),
(232,554,o),
(335,554,cs),
(421,554,o),
(502,484,o),
(502,316,cs),
(502,143,o),
(403,67,o),
(313,67,cs),
(225,67,o),
(167,115,o),
(146,146,c),
(85,88,l)
);
}
);
};
guides = (
{
angle = -55.8855;
pos = (121,34);
}
);
layerId = m01;
shapes = (
{
closed = 1;
nodes = (
(113,45,o),
(191,-15,o),
(313,-15,cs),
(461,-15,o),
(597,97,o),
(597,316,cs),
(597,543,o),
(460,636,o),
(335,636,cs),
(255,636,o),
(198,597,o),
(178,565,c),
(175,567,l),
(175,714,l),
(86,714,l),
(86,393,l),
(166,365,l),
(175,375,l),
(175,477,o),
(232,554,o),
(335,554,cs),
(421,554,o),
(502,484,o),
(502,316,cs),
(502,143,o),
(403,67,o),
(313,67,cs),
(225,67,o),
(167,115,o),
(146,146,c),
(85,88,l)
);
}
);
width = 652;
}
);
note = sunuwar_letter_kloko;
script = Sunuwar;
unicode = 72672;
},
{
category = Letter;
glyphname = "pvo-sunuwar";
lastChange = "2025-02-11 20:30:56 +0000";
layers = (
{
background = {
shapes = (
{
closed = 1;
nodes = (
(45,647,l),
(128,637,o),
(165,554,o),
(165,439,cs),
(165,307,o),
(116,197,o),
(116,178,cs),
(116,88,o),
(319,-15,o),
(466,-15,cs),
(627,-15,o),
(815,87,o),
(815,165,cs),
(815,194,o),
(771,324,o),
(771,439,cs),
(771,524,o),
(785,649,o),
(847,649,cs),
(889,649,o),
(905,603,o),
(905,552,cs),
(905,506,o),
(874,458,o),
(847,448,c),
(887,375,l),
(929,390,o),
(994,449,o),
(994,552,cs),
(994,642,o),
(949,728,o),
(847,728,cs),
(730,728,o),
(688,598,o),
(685,459,cs),
(683,357,o),
(700,284,o),
(728,166,c),
(684,121,o),
(587,73,o),
(514,68,c),
(524,158,o),
(525,283,o),
(525,345,cs),
(525,448,o),
(519,598,o),
(511,714,c),
(422,714,l),
(431,593,o),
(436,477,o),
(436,348,cs),
(436,277,o),
(431,146,o),
(424,68,c),
(347,78,o),
(263,118,o),
(207,177,c),
(232,249,o),
(254,314,o),
(254,434,cs),
(254,603,o),
(200,717,o),
(69,729,c)
);
}
);
};
guides = (
{
angle = 20.3231;
pos = (875,370);
}
);
layerId = m01;
shapes = (
{
closed = 1;
nodes = (
(45,647,l),
(128,637,o),
(165,554,o),
(165,439,cs),
(165,307,o),
(116,197,o),
(116,178,cs),
(116,88,o),
(319,-15,o),
(466,-15,cs),
(627,-15,o),
(815,87,o),
(815,165,cs),
(815,194,o),
(771,324,o),
(771,439,cs),
(771,524,o),
(785,649,o),
(847,649,cs),
(889,649,o),
(905,603,o),
(905,552,cs),
(905,506,o),
(874,458,o),
(847,448,c),
(887,375,l),
(929,390,o),
(994,449,o),
(994,552,cs),
(994,642,o),
(949,728,o),
(847,728,cs),
(721,728,o),
(679,598,o),
(676,459,cs),
(674,357,o),
(694,266,o),
(724,163,c),
(684,121,o),
(587,73,o),
(514,68,c),
(524,158,o),
(525,283,o),
(525,345,cs),
(525,448,o),
(519,598,o),
(511,714,c),
(422,714,l),
(431,593,o),
(436,477,o),
(436,348,cs),
(436,277,o),
(431,146,o),
(424,68,c),
(347,78,o),
(263,118,o),
(207,177,c),
(232,249,o),
(260,324,o),
(260,434,cs),
(260,603,o),
(206,717,o),
(69,729,c)
);
}
);
width = 1049;
}
);
note = sunuwar_letter_pvo;
script = Sunuwar;
unicode = 72673;
},
{
category = Number;
glyphname = "zero-sunuwar";
lastChange = "2025-02-11 20:30:56 +0000";
layers = (
{
background = {
shapes = (
{
closed = 1;
nodes = (
(139,688,o),
(96,627,o),
(81,551,cs),
(76,532,o),
(74,499,o),
(74,451,cs),
(74,432,o),
(74,398,o),
(74,348,cs),
(75,266,o),
(76,216,o),
(77,198,cs),
(78,179,o),
(80,164,o),
(83,151,cs),
(100,83,o),
(135,36,o),
(186,11,cs),
(204,2,l),
(402,2,l),
(422,13,ls),
(471,40,o),
(503,88,o),
(518,157,cs),
(521,176,o),
(523,209,o),
(523,258,cs),
(523,277,o),
(523,311,o),
(523,360,cs),
(523,442,o),
(523,492,o),
(522,511,cs),
(521,529,o),
(519,544,o),
(514,557,c),
(494,636,o),
(449,689,o),
(384,705,cs),
(374,708,o),
(344,710,o),
(294,710,cs),
(243,710,o),
(212,708,o),
(202,705,cs)
);
},
{
closed = 1;
nodes = (
(408,613,o),
(427,585,o),
(437,538,cs),
(440,523,o),
(441,516,o),
(440,515,cs),
(439,514,o),
(392,479,o),
(298,409,cs),
(158,304,l),
(158,405,ls),
(158,426,o),
(158,442,o),
(158,454,cs),
(158,491,o),
(159,516,o),
(162,529,cs),
(171,578,o),
(200,615,o),
(232,624,cs),
(238,626,o),
(266,627,o),
(316,627,cs),
(350,627,o),
(371,626,o),
(380,623,cs)
);
},
{
closed = 1;
nodes = (
(427,136,o),
(408,107,o),
(380,90,cs),
(373,86,o),
(366,84,o),
(359,83,cs),
(352,82,o),
(332,81,o),
(298,80,cs),
(285,80,o),
(275,80,o),
(268,80,cs),
(243,80,o),
(226,82,o),
(217,85,cs),
(189,94,o),
(171,123,o),
(162,170,c),
(157,185,o),
(156,192,o),
(158,193,cs),
(159,194,o),
(206,229,o),
(298,298,cs),
(439,404,l),
(439,303,ls),
(440,283,o),
(441,267,o),
(441,255,cs),
(441,217,o),
(440,192,o),
(437,179,cs)
);
}
);
};
layerId = m01;
shapes = (
{
closed = 1;
nodes = (
(488,-15,o),
(552,57,o),
(552,358,cs),
(552,658,o),
(488,728,o),
(322,728,cs),
(155,728,o),
(75,658,o),
(75,358,cs),
(75,57,o),
(155,-15,o),
(322,-15,cs)
);
},
{
closed = 1;
nodes = (
(218,67,o),
(174,124,o),
(174,358,cs),
(174,591,o),
(218,646,o),
(322,646,cs),
(425,646,o),
(453,591,o),
(453,358,cs),
(453,124,o),
(425,67,o),
(322,67,cs)
);
},
{
closed = 1;
nodes = (
(512,456,l),
(465,518,l),
(94,243,l),
(142,181,l)
);
}
);
width = 627;
}
);
note = sunuwar_digit_zero;
script = Sunuwar;
unicode = 72688;
},
{
category = Number;
glyphname = "one-sunuwar";
lastChange = "2025-02-11 20:30:56 +0000";
layers = (
{
layerId = m01;
shapes = (
{
closed = 1;
nodes = (
(112,0,l),
(201,0,l),
(201,714,l),
(112,714,l)
);
}
);
width = 313;
}
);
note = sunuwar_digit_one;
script = Sunuwar;
unicode = 72689;
},
{
category = Number;
glyphname = "two-sunuwar";
lastChange = "2025-02-11 20:30:56 +0000";
layers = (
{
layerId = m01;
shapes = (
{
closed = 1;
nodes = (
(231,0,l),
(320,0,l),
(320,714,l),
(231,714,l)
);
},
{
closed = 1;
nodes = (
(60,383,l),
(499,549,l),
(501,624,l),
(492,630,l),
(51,465,l),
(51,390,l)
);
},
{
closed = 1;
nodes = (
(60,117,l),
(499,283,l),
(501,358,l),
(492,364,l),
(51,199,l),
(51,124,l)
);
}
);
width = 552;
}
);
note = sunuwar_digit_two;
script = Sunuwar;
unicode = 72690;
},
{
category = Number;
glyphname = "three-sunuwar";
lastChange = "2025-02-11 20:30:56 +0000";
layers = (
{
layerId = m01;
shapes = (
{
closed = 1;
nodes = (
(231,0,l),
(320,0,l),
(320,714,l),
(231,714,l)
);
},
{
closed = 1;
nodes = (
(60,383,l),
(499,549,l),
(501,624,l),
(492,630,l),
(51,465,l),
(51,390,l)
);
},
{
closed = 1;
nodes = (
(60,117,l),
(306,210,l),
(308,285,l),
(299,291,l),
(51,199,l),
(51,124,l)
);
}
);
width = 552;
}
);
note = sunuwar_digit_three;
script = Sunuwar;
unicode = 72691;
},
{
category = Number;
glyphname = "four-sunuwar";
lastChange = "2025-02-11 20:30:56 +0000";
layers = (
{
layerId = m01;
shapes = (
{
closed = 1;
nodes = (
(112,714,l),
(112,0,l),
(531,0,l),
(531,714,l)
);
},
{
closed = 1;
nodes = (
(201,635,l),
(442,635,l),
(442,79,l),
(201,79,l)
);
}
);
width = 643;
}
);
metricLeft = "one-sunuwar";
metricRight = "one-sunuwar";
note = sunuwar_digit_four;
script = Sunuwar;
unicode = 72692;
},
{
category = Number;
glyphname = "five-sunuwar";
kernLeft = "one-sunuwar";
kernRight = "on-sunuwar";
lastChange = "2025-02-11 20:30:56 +0000";
layers = (
{
background = {
shapes = (
{
closed = 1;
nodes = (
(104,683,o),
(104,88,o),
(109,19,o),
(120,10,q),
(122,9,o),
(122,8,q),
(131,0,l),
(309,0,ls),
(315,0,o),
(340,0,o),
(344,0,qs),
(460,0,o),
(502,4,o),
(506,16,q),
(506,17,o),
(506,18,q),
(511,24,o),
(506,685,o),
(502,692,qs),
(495,700,o),
(487,707,qs),
(476,714,l),
(300,714,ls),
(179,714,o),
(126,713,o),
(120,708,qs),
(111,703,o)
);
},
{
closed = 1;
nodes = (
(186,631,l),
(427,631,l),
(427,394,l),
(186,394,l)
);
},
{
closed = 1;
nodes = (
(186,312,l),
(427,312,l),
(427,79,l),
(186,79,l)
);
}
);
};
layerId = m01;
shapes = (
{
closed = 1;
nodes = (
(112,714,l),
(112,0,l),
(531,0,l),
(531,714,l)
);
},
{
closed = 1;
nodes = (
(201,635,l),
(442,635,l),
(442,403,l),
(201,403,l)
);
},
{
closed = 1;
nodes = (
(201,324,l),
(442,324,l),
(442,79,l),
(201,79,l)
);
}
);
width = 643;
}
);
metricLeft = "one-sunuwar";
metricRight = "one-sunuwar";
note = sunuwar_digit_five;
script = Sunuwar;
unicode = 72693;
},
{
category = Number;
glyphname = "six-sunuwar";
lastChange = "2025-02-11 20:30:56 +0000";
layers = (
{
background = {
shapes = (
{
closed = 1;
nodes = (
(264,451,o),
(197,276,o),
(71,131,cs),
(39,96,o),
(40,101,o),
(40,65,cs),
(40,33,o),
(43,21,o),
(58,8,cs),
(67,0,l),
(538,0,l),
(538,714,l),
(295,714,l),
(288,707,o),
(281,701,o),
(276,694,c),
(273,645,l),
(273,645,l)
);
},
{
closed = 1;
nodes = (
(146,79,l),
(256,220,o),
(309,347,o),
(339,485,cs),
(345,518,o),
(350,564,o),
(355,615,cs),
(357,635,l),
(449,635,l),
(449,79,l)
);
}
);
};
guides = (
{
angle = 87.2361;
pos = (333,543);
},
{
angle = 103.5704;
pos = (32,29);
}
);
layerId = m01;
shapes = (
{
closed = 1;
nodes = (
(281,380,o),
(190,214,o),
(25,58,c),
(39,0,l),
(553,0,l),
(553,714,l),
(281,714,l)
);
},
{
closed = 1;
nodes = (
(155,79,l),
(270,204,o),
(358,370,o),
(361,635,c),
(464,635,l),
(464,79,l)
);
}
);
width = 665;
}
);
metricRight = "one-sunuwar";
note = sunuwar_digit_six;
script = Sunuwar;
unicode = 72694;
},
{
category = Number;
glyphname = "seven-sunuwar";
lastChange = "2025-02-11 20:30:56 +0000";
layers = (
{
background = {
shapes = (
{
closed = 1;
nodes = (
(683,42,o),
(677,56,o),
(665,71,cs),
(617,137,o),
(584,205,o),
(566,276,cs),
(551,336,o),
(549,354,o),
(549,425,cs),
(549,449,o),
(549,488,o),
(549,543,cs),
(549,598,o),
(549,628,o),
(549,633,cs),
(549,638,o),
(549,642,o),
(549,647,cs),
(549,651,o),
(549,654,o),
(549,657,cs),
(549,660,o),
(549,662,o),
(549,665,cs),
(549,668,o),
(549,670,o),
(549,672,cs),
(549,678,o),
(546,678,o),
(546,682,cs),
(546,685,o),
(544,685,o),
(544,687,c),
(540,692,o),
(534,697,o),
(527,702,cs),
(518,709,l),
(322,709,ls),
(229,709,o),
(174,709,o),
(155,709,cs),
(136,708,o),
(124,706,o),
(120,703,c),
(113,700,o),
(108,695,o),
(106,688,cs),
(103,681,o),
(102,571,o),
(102,357,cs),
(102,346,o),
(102,332,o),
(102,313,cs),
(102,294,o),
(102,281,o),
(102,273,cs),
(102,150,o),
(103,77,o),
(104,54,cs),
(105,31,o),
(110,16,o),
(117,10,c),
(119,9,o),
(120,9,o),
(120,8,c),
(131,0,l),
(665,0,l),
(677,12,o),
(683,22,o),
(683,31,cs)
);
},
{
closed = 1;
nodes = (
(186,626,l),
(285,626,l),
(285,79,l),
(186,79,l),
(186,79,l)
);
},
{
closed = 1;
nodes = (
(465,368,o),
(468,343,o),
(485,271,cs),
(502,201,o),
(527,141,o),
(560,92,c),
(566,79,l),
(368,79,l),
(368,626,l),
(469,626,l),
(467,600,ls),
(466,581,o),
(465,537,o),
(465,469,cs)
);
}
);
};
guides = (
{
angle = 76.4296;
pos = (690,29);
},
{
angle = 122.3914;
pos = (673,110);
}
);
layerId = m01;
shapes = (
{
closed = 1;
nodes = (
(643,206,o),
(613,330,o),
(613,714,c),
(112,714,l),
(112,0,l),
(732,0,l),
(746,58,l)
);
},
{
closed = 1;
nodes = (
(201,635,l),
(327,635,l),
(327,79,l),
(201,79,l)
);
},
{
closed = 1;
nodes = (
(524,330,o),
(555,189,o),
(624,79,c),
(416,79,l),
(416,635,l),
(524,635,l)
);
}
);
width = 771;
}
);
metricLeft = "one-sunuwar";
note = sunuwar_digit_seven;
script = Sunuwar;
unicode = 72695;
},
{
category = Number;
glyphname = "eight-sunuwar";
lastChange = "2025-02-11 20:30:56 +0000";
layers = (
{
background = {
shapes = (
{
closed = 1;
nodes = (
(453,0,l),
(538,0,l),
(542,10,l),
(142,714,l),
(60,714,l),
(54,704,l)
);
},
{
closed = 1;
nodes = (
(527,714,l),
(451,714,l),
(51,10,l),
(55,0,l),
(134,0,l),
(533,704,l)
);
}
);
};
layerId = m01;
shapes = (
{
closed = 1;
nodes = (
(249,359,l),
(51,10,l),
(55,0,l),
(134,0,l),
(226,161,ls),
(260,222,o),
(280,260,o),
(292,287,c),
(295,287,l),
(307,260,o),
(327,222,o),
(361,161,cs),
(453,0,l),
(538,0,l),
(542,10,l),
(341,364,l),
(533,704,l),
(527,714,l),
(451,714,l),
(356,546,ls),
(328,495,o),
(310,461,o),
(298,436,c),
(295,436,l),
(285,461,o),
(268,494,o),
(239,545,cs),
(142,714,l),
(60,714,l),
(54,704,l)
);
}
);
width = 593;
}
);
note = sunuwar_digit_eight;
script = Sunuwar;
unicode = 72696;
},
{
category = Number;
glyphname = "nine-sunuwar";
lastChange = "2025-02-11 20:30:56 +0000";
layers = (
{
background = {
shapes = (
{
closed = 1;
nodes = (
(183,498,l),
(180,589,ls),
(180,631,o),
(180,657,o),
(179,667,cs),
(178,676,o),
(177,683,o),
(174,688,c),
(162,703,o),
(149,710,o),
(134,710,cs),
(118,710,o),
(108,703,o),
(103,689,cs),
(100,682,o),
(99,572,o),
(99,358,cs),
(99,347,o),
(99,333,o),
(99,314,cs),
(99,295,o),
(99,282,o),
(99,274,cs),
(99,151,o),
(100,78,o),
(101,55,cs),
(102,32,o),
(107,17,o),
(114,11,c),
(116,10,o),
(117,10,o),
(117,9,c),
(124,4,o),
(134,1,o),
(145,1,cs),
(156,1,o),
(163,2,o),
(167,5,cs),
(174,8,o),
(179,20,o),
(181,39,cs),
(182,58,o),
(183,119,o),
(183,222,cs),
(183,416,l),
(334,416,l),
(334,398,ls),
(334,365,o),
(352,343,o),
(381,343,cs),
(397,343,o),
(408,350,o),
(414,364,cs),
(415,369,o),
(416,388,o),
(416,421,cs),
(416,432,o),
(416,444,o),
(416,457,cs),
(416,497,o),
(416,522,o),
(415,531,cs),
(414,540,o),
(412,546,o),
(409,550,cs),
(398,565,o),
(385,572,o),
(370,572,cs),
(346,572,o),
(334,555,o),
(334,520,cs),
(334,498,l),
(334,498,l)
);
}
);
};
layerId = m01;
shapes = (
{
ref = "one-sunuwar";
},
{
closed = 1;
nodes = (
(345,327,l),
(434,327,l),
(434,589,l),
(345,589,l)
);
},
{
closed = 1;
nodes = (
(406,418,l),
(406,497,l),
(174,497,l),
(174,418,l)
);
}
);
width = 499;
}
);
metricLeft = "one-sunuwar";
note = sunuwar_digit_nine;
script = Sunuwar;
unicode = 72697;
},
{
glyphname = .notdef;
lastChange = "2025-02-05 19:24:19 +0000";
layers = (
{
layerId = m01;
shapes = (
{
closed = 1;
nodes = (
(505,0,l),
(505,714,l),
(94,714,l),
(94,0,l)
);
},
{
closed = 1;
nodes = (
(145,663,l),
(454,663,l),
(454,51,l),
(145,51,l)
);
}
);
userData = {
assembly = "PUSHB[ ]	/* 2 values pushed */
1 0
MDAP[1]	/* MoveDirectAbsPt */
ALIGNRP[ ]	/* AlignRelativePt */
PUSHB[ ]	/* 3 values pushed */
7 4 0
MIRP[01101]	/* MoveIndirectRelPt */
SHP[0]	/* ShiftPointByLastPoint */
PUSHB[ ]	/* 2 values pushed */
6 5
MDRP[11100]	/* MoveDirectRelPt */
ALIGNRP[ ]	/* AlignRelativePt */
PUSHB[ ]	/* 3 values pushed */
3 2 0
MIRP[01101]	/* MoveIndirectRelPt */
SHP[0]	/* ShiftPointByLastPoint */
SVTCA[0]	/* SetFreedomAndProjectionVectorToAxis */
PUSHB[ ]	/* 2 values pushed */
3 0
MDAP[1]	/* MoveDirectAbsPt */
ALIGNRP[ ]	/* AlignRelativePt */
PUSHB[ ]	/* 3 values pushed */
5 4 0
MIRP[01101]	/* MoveIndirectRelPt */
SHP[0]	/* ShiftPointByLastPoint */
PUSHB[ ]	/* 3 values pushed */
7 6 1
MIRP[11100]	/* MoveIndirectRelPt */
ALIGNRP[ ]	/* AlignRelativePt */
PUSHB[ ]	/* 3 values pushed */
1 2 0
MIRP[01101]	/* MoveIndirectRelPt */
SHP[0]	/* ShiftPointByLastPoint */";
};
width = 600;
}
);
note = .notdef;
},
{
glyphname = period;
kernLeft = comma;
kernRight = comma;
lastChange = "2025-04-01 18:16:01 +0000";
layers = (
{
layerId = m01;
shapes = (
{
closed = 1;
nodes = (
(72,6,o),
(99.667,-14,o),
(133,-14,cs),
(167.667,-14,o),
(196,6,o),
(196,54,cs),
(196,103.333,o),
(167.667,121,o),
(133,121,cs),
(99.667,121,o),
(72,103.333,o),
(72,54,cs)
);
}
);
width = 268;
}
);
note = period;
unicode = 46;
},
{
glyphname = comma;
kernLeft = comma;
kernRight = comma;
lastChange = "2025-04-01 18:16:11 +0000";
layers = (
{
layerId = m01;
shapes = (
{
closed = 1;
nodes = (
(91,116,l),
(82.051,53.354,o),
(63.698,-42.747,o),
(41,-129,c),
(106,-129,l),
(137.817,-57.412,o),
(173.103,31.513,o),
(192,105,c),
(185,116,l)
);
}
);
width = 268;
}
);
note = comma;
unicode = 44;
},
{
glyphname = colon;
kernLeft = colon;
lastChange = "2025-04-01 18:16:01 +0000";
layers = (
{
layerId = m01;
shapes = (
{
closed = 1;
nodes = (
(72,6,o),
(99.667,-14,o),
(133,-14,cs),
(167.667,-14,o),
(196,6,o),
(196,54,cs),
(196,103.333,o),
(167.667,121,o),
(133,121,cs),
(99.667,121,o),
(72,103.333,o),
(72,54,cs)
);
},
{
closed = 1;
nodes = (
(72,434,o),
(99.667,414,o),
(133,414,cs),
(167.667,414,o),
(196,434,o),
(196,482,cs),
(196,532.667,o),
(167.667,550,o),
(133,550,cs),
(99.667,550,o),
(72,532.667,o),
(72,482,cs)
);
}
);
width = 268;
}
);
note = colon;
unicode = 58;
},
{
glyphname = semicolon;
kernLeft = colon;
lastChange = "2025-04-01 18:16:15 +0000";
layers = (
{
layerId = m01;
shapes = (
{
closed = 1;
nodes = (
(82,116,l),
(69.724,36.203,o),
(52.31,-43.761,o),
(31,-129,c),
(97,-129,l),
(128.817,-57.412,o),
(164.103,31.513,o),
(183,105,c),
(176,116,l)
);
},
{
closed = 1;
nodes = (
(70,434,o),
(97.667,414,o),
(131,414,cs),
(165.667,414,o),
(194,434,o),
(194,482,cs),
(194,532.667,o),
(165.667,550,o),
(131,550,cs),
(97.667,550,o),
(70,532.667,o),
(70,482,cs)
);
}
);
width = 268;
}
);
note = semicolon;
unicode = 59;
},
{
glyphname = exclam;
lastChange = "2025-04-01 18:16:21 +0000";
layers = (
{
layerId = m01;
shapes = (
{
closed = 1;
nodes = (
(81,714,l),
(106,201,l),
(163,201,l),
(188,714,l)
);
},
{
closed = 1;
nodes = (
(72,6,o),
(99.333,-14,o),
(134,-14,cs),
(167.333,-14,o),
(196,6,o),
(196,54,cs),
(196,103.333,o),
(167.333,121,o),
(134,121,cs),
(99.333,121,o),
(72,103.333,o),
(72,54,cs)
);
}
);
width = 269;
}
);
note = exclam;
unicode = 33;
},
{
glyphname = question;
lastChange = "2025-04-01 18:16:24 +0000";
layers = (
{
layerId = m01;
shapes = (
{
closed = 1;
nodes = (
(210,201,l),
(210,218,ls),
(210,256.667,o),
(216.167,281,o),
(239.5,309,cs),
(251.167,323,o),
(268,339.333,o),
(290,358,cs),
(338,398,o),
(374.167,430.5,o),
(393.5,472.5,cs),
(403.167,493.5,o),
(408,519,o),
(408,549,cs),
(408,657,o),
(335.667,724,o),
(209,724,cs),
(129,724,o),
(65.333,703,o),
(12,675,c),
(43,605,l),
(89.667,627.667,o),
(137.667,647,o),
(203,647,cs),
(281.667,647,o),
(324,611,o),
(324,547,cs),
(324,507,o),
(313.167,482.333,o),
(284.5,453,cs),
(270.167,438.333,o),
(250,420,o),
(224,398,cs),
(181.333,362,o),
(157.5,330.167,o),
(147.5,293.5,cs),
(142.5,275.167,o),
(140,253.333,o),
(140,228,cs),
(140,201,l)
);
},
{
closed = 1;
nodes = (
(117,6,o),
(143,-14,o),
(179,-14,cs),
(212.333,-14,o),
(240,6,o),
(240,54,cs),
(240,103.333,o),
(212.333,121,o),
(179,121,cs),
(143,121,o),
(117,103.333,o),
(117,54,cs)
);
}
);
width = 434;
}
);
note = question;
unicode = 63;
},
{
glyphname = hyphen;
kernLeft = hyphen;
kernRight = hyphen;
lastChange = "2025-04-01 18:16:28 +0000";
layers = (
{
layerId = m01;
shapes = (
{
closed = 1;
nodes = (
(282,307,l),
(40,307,l),
(40,229,l),
(282,229,l)
);
}
);
width = 322;
}
);
note = hyphen;
unicode = 45;
},
{
glyphname = parenleft;
kernRight = parenleft;
lastChange = "2025-04-01 18:16:01 +0000";
layers = (
{
layerId = m01;
shapes = (
{
closed = 1;
nodes = (
(40,114.375,o),
(84.639,-37.214,o),
(187,-158,c),
(269,-158,l),
(179.995,-36.102,o),
(129,115.126,o),
(129,275,cs),
(129,433.667,o),
(176.667,588.667,o),
(270,714,c),
(187,714,l),
(87.755,594.906,o),
(40,443.892,o),
(40,274,cs)
);
}
);
width = 300;
}
);
note = parenleft;
unicode = 40;
},
{
glyphname = parenright;
kernLeft = parenright;
lastChange = "2025-04-01 18:16:01 +0000";
layers = (
{
layerId = m01;
shapes = (
{
closed = 1;
nodes = (
(260,440.682,o),
(214.014,595.16,o),
(113,714,c),
(30,714,l),
(121.852,592.834,o),
(171,433.78,o),
(171,275,cs),
(171,118.554,o),
(122.028,-33.331,o),
(31,-158,c),
(113,-158,l),
(213.564,-41.662,o),
(260,109.497,o),
(260,274,cs)
);
}
);
width = 300;
}
);
note = parenright;
unicode = 41;
},
{
glyphname = braceleft;
kernRight = parenleft;
lastChange = "2025-04-01 18:16:34 +0000";
layers = (
{
layerId = m01;
shapes = (
{
closed = 1;
nodes = (
(276.681,-83.962,o),
(237,-57.139,o),
(237,7,cs),
(237,154,ls),
(237,222,o),
(202.667,262.667,o),
(128,276,c),
(128,282,l),
(201.333,295.333,o),
(237,336,o),
(237,404,cs),
(237,548,ls),
(237,611.923,o),
(277.99,639.941,o),
(348,642,c),
(348,714,l),
(228.262,714,o),
(150,660.244,o),
(150,556,cs),
(150,408,ls),
(150,342.489,o),
(109.628,317.041,o),
(28,315,c),
(28,242,l),
(107.594,242,o),
(150,214.798,o),
(150,148,cs),
(150,1,ls),
(150,-69.667,o),
(183.167,-117.333,o),
(242.5,-140,cs),
(272.167,-151.333,o),
(307.333,-157.333,o),
(348,-158,c),
(348,-86,l)
);
}
);
width = 380;
}
);
note = braceleft;
unicode = 123;
},
{
glyphname = braceright;
kernLeft = parenright;
lastChange = "2025-04-01 18:16:36 +0000";
layers = (
{
layerId = m01;
shapes = (
{
closed = 1;
nodes = (
(151.873,-158,o),
(230,-104.386,o),
(230,0,cs),
(230,149,ls),
(230,217.053,o),
(275.085,242,o),
(352,242,c),
(352,315,l),
(275.41,315,o),
(230,339.927,o),
(230,409,cs),
(230,555,ls),
(230,660.495,o),
(156.588,714,o),
(32,714,c),
(32,642,l),
(103.654,642,o),
(143,613.299,o),
(143,549,cs),
(143,403,ls),
(143,335,o),
(178.667,294.333,o),
(252,281,c),
(252,275,l),
(178.667,261.667,o),
(143,221,o),
(143,153,cs),
(143,8,ls),
(143,-55.239,o),
(101.905,-84.003,o),
(32,-86,c),
(32,-158,l)
);
}
);
width = 380;
}
);
note = braceright;
unicode = 125;
},
{
glyphname = bracketleft;
kernRight = parenleft;
lastChange = "2025-04-01 18:16:39 +0000";
layers = (
{
layerId = m01;
shapes = (
{
closed = 1;
nodes = (
(166,-86,l),
(166,642,l),
(304,642,l),
(304,714,l),
(80,714,l),
(80,-158,l),
(304,-158,l),
(304,-86,l)
);
}
);
width = 329;
}
);
note = bracketleft;
unicode = 91;
},
{
glyphname = bracketright;
kernLeft = parenright;
lastChange = "2025-04-01 18:16:41 +0000";
layers = (
{
layerId = m01;
shapes = (
{
closed = 1;
nodes = (
(249,-158,l),
(249,714,l),
(25,714,l),
(25,642,l),
(163,642,l),
(163,-86,l),
(25,-86,l),
(25,-158,l)
);
}
);
width = 329;
}
);
note = bracketright;
unicode = 93;
},
{
glyphname = quotedblleft;
kernLeft = quoteleft;
kernRight = quotedbl;
lastChange = "2025-04-01 18:16:46 +0000";
layers = (
{
layerId = m01;
shapes = (
{
closed = 1;
nodes = (
(244.06,628.636,o),
(212.303,547.289,o),
(195,480,c),
(202,469,l),
(297,469,l),
(306.606,536.243,o),
(324.964,620.959,o),
(347,714,c),
(282,714,l)
);
},
{
closed = 1;
nodes = (
(60.611,629.876,o),
(29.11,546.54,o),
(12,480,c),
(18,469,l),
(112,469,l),
(121.606,536.243,o),
(139.964,620.959,o),
(162,714,c),
(98,714,l)
);
}
);
width = 359;
}
);
note = quotedblleft;
unicode = 8220;
},
{
glyphname = quotedblright;
kernLeft = quotedbl;
kernRight = quotedbl;
lastChange = "2025-04-01 18:16:49 +0000";
layers = (
{
layerId = m01;
shapes = (
{
closed = 1;
nodes = (
(246,714,l),
(237.933,657.533,o),
(216.101,549.183,o),
(195,469,c),
(261,469,l),
(292.817,540.588,o),
(328.103,629.513,o),
(347,703,c),
(340,714,l)
);
},
{
closed = 1;
nodes = (
(61,714,l),
(50.388,645.025,o),
(31.021,545.085,o),
(12,469,c),
(76,469,l),
(107.817,540.588,o),
(143.103,629.513,o),
(162,703,c),
(155,714,l)
);
}
);
width = 359;
}
);
note = quotedblright;
unicode = 8221;
},
{
glyphname = quoteleft;
kernLeft = quoteleft;
kernRight = quotedbl;
lastChange = "2025-04-01 18:16:51 +0000";
layers = (
{
layerId = m01;
shapes = (
{
closed = 1;
nodes = (
(113,469,l),
(123.239,540.676,o),
(140.264,618.004,o),
(163,714,c),
(98,714,l),
(59.977,630.824,o),
(29.015,546.171,o),
(12,480,c),
(18,469,l)
);
}
);
width = 175;
}
);
note = quoteleft;
unicode = 8216;
},
{
glyphname = quoteright;
kernLeft = quotedbl;
kernRight = quotedbl;
lastChange = "2025-04-01 18:16:53 +0000";
layers = (
{
layerId = m01;
shapes = (
{
closed = 1;
nodes = (
(62,714,l),
(49.826,634.869,o),
(33.501,555.003,o),
(12,469,c),
(77,469,l),
(108.817,540.588,o),
(144.103,629.513,o),
(163,703,c),
(156,714,l)
);
}
);
width = 175;
}
);
note = quoteright;
unicode = 8217;
},
{
glyphname = quotedbl;
kernLeft = quotedbl;
kernRight = quotedbl;
lastChange = "2025-04-01 18:16:58 +0000";
layers = (
{
layerId = m01;
shapes = (
{
closed = 1;
nodes = (
(85,456,l),
(140,456,l),
(160,714,l),
(65,714,l)
);
},
{
closed = 1;
nodes = (
(268,456,l),
(323,456,l),
(343,714,l),
(248,714,l)
);
}
);
width = 408;
}
);
note = quotedbl;
unicode = 34;
},
{
glyphname = quotesingle;
kernLeft = quotedbl;
kernRight = quotedbl;
lastChange = "2025-04-01 18:17:02 +0000";
layers = (
{
layerId = m01;
shapes = (
{
closed = 1;
nodes = (
(85,456,l),
(140,456,l),
(160,714,l),
(65,714,l)
);
}
);
width = 225;
}
);
note = quotesingle;
unicode = 39;
},
{
glyphname = percent;
lastChange = "2025-04-01 18:17:05 +0000";
layers = (
{
layerId = m01;
shapes = (
{
closed = 1;
nodes = (
(93.667,724,o),
(49,642.333,o),
(49,501,cs),
(49,359.667,o),
(100.333,276,o),
(195,276,cs),
(297.667,276,o),
(345,359.667,o),
(345,501,cs),
(345,642.333,o),
(293.667,724,o),
(195,724,cs)
);
},
{
closed = 1;
nodes = (
(247,662,o),
(272,607.667,o),
(272,501,cs),
(272,447,o),
(265.667,406.5,o),
(253,379.5,cs),
(240.333,352.5,o),
(221,339,o),
(195,339,cs),
(169.667,339,o),
(151.167,352.667,o),
(139.5,380,cs),
(127.833,407.333,o),
(122,447.667,o),
(122,501,cs),
(122,554.333,o),
(127.833,594.5,o),
(139.5,621.5,cs),
(151.167,648.5,o),
(169.667,662,o),
(195,662,cs)
);
},
{
closed = 1;
nodes = (
(179,0,l),
(256,0,l),
(652,714,l),
(575,714,l)
);
},
{
closed = 1;
nodes = (
(530.667,438,o),
(486,356.333,o),
(486,215,cs),
(486,73.667,o),
(537.333,-10,o),
(632,-10,cs),
(734.667,-10,o),
(782,73.667,o),
(782,215,cs),
(782,356.333,o),
(729.333,438,o),
(632,438,cs)
);
},
{
closed = 1;
nodes = (
(684,375,o),
(709,321.667,o),
(709,215,cs),
(709,160.333,o),
(702.667,119.667,o),
(690,93,cs),
(677.333,66.333,o),
(658,53,o),
(632,53,cs),
(606.667,53,o),
(588.167,66.5,o),
(576.5,93.5,cs),
(564.833,120.5,o),
(559,161,o),
(559,215,cs),
(559,268.333,o),
(564.833,308.333,o),
(576.5,335,cs),
(588.167,361.667,o),
(606.667,375,o),
(632,375,cs)
);
}
);
width = 831;
}
);
note = percent;
unicode = 37;
},
{
glyphname = uni030D;
lastChange = "2025-02-05 00:33:55 +0000";
layers = (
{
anchors = (
{
name = _top;
pos = (1,536);
}
);
layerId = m01;
shapes = (
{
closed = 1;
nodes = (
(-40,596,l),
(40,596,l),
(40,760,l),
(-40,760,l)
);
}
);
width = 0;
}
);
note = uni030D;
unicode = 781;
},
{
glyphname = uni0310;
lastChange = "2025-04-01 18:21:46 +0000";
layers = (
{
anchors = (
{
name = _top;
pos = (0,536);
}
);
layerId = m01;
shapes = (
{
closed = 1;
nodes = (
(-28.333,844,o),
(-51,826.667,o),
(-51,788,cs),
(-51,750.667,o),
(-28.333,732,o),
(1,732,cs),
(27.667,732,o),
(52,750.667,o),
(52,788,cs),
(52,826.667,o),
(27.667,844,o),
(1,844,cs)
);
},
{
pos = (-190,0);
ref = macronmod;
}
);
width = 0;
}
);
note = uni0310;
unicode = 784;
},
{
glyphname = uni031D;
layers = (
{
layerId = m01;
shapes = (
{
closed = 1;
nodes = (
(-33,-148,l),
(-105,-148,l),
(-105,-208,l),
(105,-208,l),
(105,-148,l),
(33,-148,l),
(33,-48,l),
(-33,-48,l)
);
}
);
width = 0;
}
);
note = uni031D;
unicode = 797;
},
{
glyphname = grave;
lastChange = "2025-04-01 18:07:20 +0000";
layers = (
{
layerId = m01;
shapes = (
{
closed = 1;
nodes = (
(40,756,l),
(63.886,718.845,o),
(126.766,651.487,o),
(182,606,c),
(241,606,l),
(241,618,l),
(208.122,659.645,o),
(169.164,717.672,o),
(145,766,c),
(40,766,l)
);
}
);
width = 281;
}
);
note = grave;
unicode = 96;
},
{
glyphname = acute;
lastChange = "2025-04-01 18:07:43 +0000";
layers = (
{
layerId = m01;
shapes = (
{
closed = 1;
nodes = (
(135,766,l),
(113.756,723.512,o),
(69.75,655.684,o),
(40,618,c),
(40,606,l),
(98,606,l),
(146.476,643.704,o),
(219.328,722.288,o),
(241,756,c),
(241,766,l)
);
}
);
width = 281;
}
);
note = acute;
unicode = 180;
},
{
glyphname = circumflex;
lastChange = "2025-04-01 18:07:56 +0000";
layers = (
{
layerId = m01;
shapes = (
{
closed = 1;
nodes = (
(134.802,718.281,o),
(77.846,656.838,o),
(40,617,c),
(40,606,l),
(100,606,l),
(134.667,628.667,o),
(171,660,o),
(207,696,c),
(243,660,o),
(281.333,627.333,o),
(316,606,c),
(378,606,l),
(378,617,l),
(334.164,660.836,o),
(275.654,724.468,o),
(253,766,c),
(163,766,l)
);
}
);
width = 418;
}
);
note = circumflex;
unicode = 710;
},
{
glyphname = macronmod;
layers = (
{
layerId = m01;
shapes = (
{
closed = 1;
nodes = (
(40,606,l),
(337,606,l),
(337,677,l),
(40,677,l)
);
}
);
width = 377;
}
);
note = macronmod;
unicode = 713;
},
{
glyphname = tilde;
lastChange = "2025-04-01 18:08:16 +0000";
layers = (
{
layerId = m01;
shapes = (
{
closed = 1;
nodes = (
(100.333,644.667,o),
(114,664,o),
(146,664,cs),
(192.501,664,o),
(239.908,607,o),
(298,607,cs),
(360.667,607,o),
(399,657.667,o),
(407,735,c),
(357,735,l),
(347.667,696.333,o),
(332.667,677,o),
(302,677,cs),
(254.731,677,o),
(213.286,734,o),
(150,734,cs),
(85.471,734,o),
(47.78,683.801,o),
(40,606,c),
(91,606,l)
);
}
